<?xml version="1.0" encoding="utf-8" ?>
<svg baseProfile="full" height="300mm" version="1.1" viewBox="0,0,200,300" width="200mm" xmlns="http://www.w3.org/2000/svg" xmlns:ev="http://www.w3.org/2001/xml-events" xmlns:xlink="http://www.w3.org/1999/xlink"><defs /><rect fill="#222222" height="300" width="200" x="0" y="0" /><text fill="#FFFFFF" style="font-size:12px; font-family:Arial; font-weight:bold;" x="10" y="20">Over 10km Runs</text><text fill="#FFFFFF" style="font-size:4px; font-family:Arial" x="10" y="280">ATHLETE</text><text fill="#FFFFFF" style="font-size:9px; font-family:Arial" x="10" y="290">leslie</text><text fill="#FFFFFF" style="font-size:4px; font-family:Arial" x="120" y="280">STATISTICS</text><text fill="#FFFFFF" style="font-size:3px; font-family:Arial" x="120" y="285">Number: 8</text><text fill="#FFFFFF" style="font-size:3px; font-family:Arial" x="120" y="290">Weekly: 4.0</text><text fill="#FFFFFF" style="font-size:3px; font-family:Arial" x="141" y="285">Total: 17.2 km</text><text fill="#FFFFFF" style="font-size:3px; font-family:Arial" x="141" y="290">Avg: 2.1 km</text><text fill="#FFFFFF" style="font-size:3px; font-family:Arial" x="167" y="285">Min: 1.8 km</text><text fill="#FFFFFF" style="font-size:3px; font-family:Arial" x="167" y="290">Max: 2.5 km</text><polyline fill="none" points="44.43107220996171,78.52523466397543 42.65864332602359,76.79752719611861 40.94529540487565,77.24545167974429 35.096280087251216,73.2141231324058 32.14223194727674,69.88666345539968 26.647702406859025,67.07111083890777 13.0,55.296884250536095 13.649890590691939,53.18518567044521 23.929978118045256,41.474765336024575 43.426695842295885,57.40857777011115 44.01750547019765,59.136323249549605 50.75273522967473,63.679637789260596 67.0,77.18146248167614" stroke="#4dd2ff" stroke-linecap="round" stroke-linejoin="round" stroke-width="0.5"><title>2022-02-15 2.0km</title></polyline><polyline fill="none" points="162.1323692991864,72.7840661671944 161.77196885435842,73.9550905667129 160.33036707458086,73.69486305455212 151.68075639614835,66.01811744837323 148.1968854283914,64.71696760645136 146.69521690765396,62.374893129453994 135.8832035595551,53.85229266464012 133.0,50.27407746523386 143.57174638472497,37.45744393230416 168.43937708553858,58.99188585439697 187.0,73.49969237088226 185.9788654060103,76.16702136775712 181.4137931035366,81.11131753271911 178.77085650735535,82.54255606769584" stroke="#4dd2ff" stroke-linecap="round" stroke-linejoin="round" stroke-width="0.5"><title>2022-02-14 2.1km</title></polyline><polyline fill="none" points="58.36368528287858,147.0 43.81467858562246,135.08559872186743 36.18532141530886,131.3383051775163 15.071519013028592,113.08210791880265 31.3060813639313,93.0 58.80725256027654,115.86859642027412 56.944269995670766,121.5376411206089 49.31491282489151,132.39523520029616 64.92848098743707,145.17441321455408 64.75105407694355,146.6156661491841" stroke="#4dd2ff" stroke-linecap="round" stroke-linejoin="round" stroke-width="0.5"><title>2022-02-13 1.8km</title></polyline><polyline fill="none" points="174.4626640607603,144.5008787997067 173.0617222432047,145.66118570312392 173.30894726980478,147.0 171.66078042518348,144.85789642494638 161.60696267336607,143.07280726113822 160.37083753943443,137.71752421651036 154.68466192577034,135.93242468393873 154.51984524121508,134.23657772690058 145.20770256966352,127.27465517562814 143.64194406662136,122.90111956151668 146.0317859915085,119.1523623636458 137.5437267422676,110.58373155025765 151.30591989448294,93.0 176.60528095904738,114.51102808793075 176.19323924789205,118.43831207731273 167.8699966822751,128.70274506742135 177.7589977500029,139.50262115697842 181.46737315040082,141.2877155051101 182.45627325726673,142.7157891173847 181.30255646584556,145.66118570312392 182.29145657271147,145.48267702001613 181.96182320360094,144.3223699479131" stroke="#4dd2ff" stroke-linecap="round" stroke-linejoin="round" stroke-width="0.5"><title>2022-02-12 2.0km</title></polyline><polyline fill="none" points="60.55736497603357,207.0 56.142941339407116,203.71881444810424 53.80589353106916,205.31253418605775 44.45770230004564,198.7501461680513 41.16852390393615,194.43770159548149 34.33049513306469,191.25023330620024 33.37836454482749,188.71900288236793 29.39672753866762,186.75026467745192 13.123950210399926,172.3127594430698 25.7613198379986,154.96878967341036 28.617711602710187,153.0 49.7376991994679,169.50023963395506 66.87604978960007,184.781523470534 61.07670893333852,179.5315322416136 57.0085146012716,177.84403052704874 46.36196347652003,189.84399479452986 46.015734172426164,191.81272828194778 53.286549573764205,196.59392568224575 52.507533638272434,199.0313920530025 55.88326936075464,202.9688280086266" stroke="#4dd2ff" stroke-linecap="round" stroke-linejoin="round" stroke-width="0.5"><title>2022-02-12 2.2km</title></polyline><polyline fill="none" points="156.93999999994412,191.24272270756774 152.02000000001863,186.10891137714498 146.43999999994412,183.44451667409157 133.0,170.70730069017736 138.45999999972992,162.7139552203007 143.6799999999348,157.32003134518163 187.0,193.12727897166042 184.96000000019558,197.5462229262921 179.38000000012107,202.67996865476016 171.21999999997206,196.89637959527317 170.80000000004657,195.7916448499309 168.39999999990687,197.61120723333443 165.87999999988824,195.85662928433158" stroke="#4dd2ff" stroke-linecap="round" stroke-linejoin="round" stroke-width="0.5"><title>2022-02-10 2.3km</title></polyline><polyline fill="none" points="44.58490566024557,254.50832397514023 43.386237513739616,252.95042463875143 41.10876803519204,253.59954969206592 35.17536071012728,249.8995305749122 13.179800221929327,230.81497824791586 13.0,229.5816088093561 16.176470587961376,225.49200323101832 23.428412874462083,217.57239637168823 67.0,253.4697247191798 64.36293007736094,257.75393887329847 59.328523862408474,262.4276036283118 50.21864594868384,256.1960451925406 48.300776914227754,257.6890266909031 45.543840177124366,255.35218498203903 45.00443951156922,256.1960451925406 46.20310765807517,254.50832397514023" stroke="#4dd2ff" stroke-linecap="round" stroke-linejoin="round" stroke-width="0.5"><title>2022-02-09 2.5km</title></polyline><polyline fill="none" points="148.07675194647163,246.9614720629179 148.91768631804734,243.96883307624375 147.4760845382698,241.56170315970667 136.8442714123521,232.58370210434077 134.08120133448392,231.86806046764832 133.0,229.33078096748795 133.66073414869606,227.4440812963294 140.86874304758385,218.40087943192339 143.7519466073718,216.1237998273573 167.41824249154888,236.48719187855022 187.0,251.90581022860715 186.39933259179816,254.11774215404876 177.32925472734496,263.8762001726427 168.91991101228632,259.5174353905604 167.17797552840784,257.7609122458962 167.53837597346865,255.93932905141264 165.49610678548925,254.57313922554022" stroke="#4dd2ff" stroke-linecap="round" stroke-linejoin="round" stroke-width="0.5"><title>2022-02-08 2.2km</title></polyline></svg>