<?xml version="1.0" encoding="utf-8" ?>
<svg baseProfile="full" height="300mm" version="1.1" viewBox="0,0,200,300" width="200mm" xmlns="http://www.w3.org/2000/svg" xmlns:ev="http://www.w3.org/2001/xml-events" xmlns:xlink="http://www.w3.org/1999/xlink"><defs /><rect fill="#222222" height="300" width="200" x="0" y="0" /><text fill="#FFFFFF" style="font-size:12px; font-family:Arial; font-weight:bold;" x="10" y="20">Over 10km Runs</text><text fill="#FFFFFF" style="font-size:4px; font-family:Arial" x="10" y="280">ATHLETE</text><text fill="#FFFFFF" style="font-size:9px; font-family:Arial" x="10" y="290">leslie</text><text fill="#FFFFFF" style="font-size:4px; font-family:Arial" x="120" y="280">STATISTICS</text><text fill="#FFFFFF" style="font-size:3px; font-family:Arial" x="120" y="285">Number: 3</text><text fill="#FFFFFF" style="font-size:3px; font-family:Arial" x="120" y="290">Weekly: 3.0</text><text fill="#FFFFFF" style="font-size:3px; font-family:Arial" x="141" y="285">Total: 7.1 km</text><text fill="#FFFFFF" style="font-size:3px; font-family:Arial" x="141" y="290">Avg: 2.4 km</text><text fill="#FFFFFF" style="font-size:3px; font-family:Arial" x="167" y="285">Min: 2.2 km</text><text fill="#FFFFFF" style="font-size:3px; font-family:Arial" x="167" y="290">Max: 2.5 km</text><polyline fill="none" points="50.40999999968335,91.86408406146802 43.02999999979511,84.16336706583388 34.65999999968335,80.16677501122467 14.5,61.060951035353355 22.68999999947846,49.070932830451056 30.519999999552965,40.98004701791797 95.5,94.69091845757794 92.43999999994412,101.31933438952547 84.06999999983236,109.01995298219845 71.82999999960884,100.34456939296797 71.1999999997206,98.68746727495454 67.59999999962747,101.41681085003074 63.8199999993667,98.78494392649736" stroke="#4dd2ff" stroke-linecap="round" stroke-linejoin="round" stroke-width="0.5"><title>2022-02-10 2.3km</title></polyline><polyline fill="none" points="151.87735849013552,96.76248596271034 150.0793562703766,94.42563695821445 146.66315205255523,95.39932453818619 137.7630410650745,89.84929586248472 104.7697003330104,61.2224673719611 104.5,59.37241321417969 109.26470588194206,53.238004846614785 120.14261931180954,41.358594557619654 185.5,95.2045870788861 181.54439511615783,101.63090831006411 173.99278579372913,108.64140544249676 160.327968923375,99.29406778886914 157.45116537157446,101.53354003641289 153.3157602660358,98.02827747317497 152.50665926700458,99.29406778886914 154.3046614867635,96.76248596271034" stroke="#4dd2ff" stroke-linecap="round" stroke-linejoin="round" stroke-width="0.5"><title>2022-02-09 2.5km</title></polyline><polyline fill="none" points="37.11512791970745,235.44220809452236 38.37652947707102,230.95324961445294 36.21412680763751,227.34255473967642 20.266407118644565,213.87555315659847 16.121802001725882,212.8020907015307 14.5,208.99617145129014 15.491101223044097,206.1661219445523 26.303114571608603,192.6013191479724 30.627919910941273,189.18569974112324 66.12736373767257,219.73078781785443 95.5,242.85871534305625 94.59899888793007,246.17661323118955 80.99388209125027,260.81430025899317 68.3798665185459,254.27615308598615 65.7669632928446,251.64136836887337 66.30756396008655,248.90899357711896 63.244160178117454,246.85970883839764" stroke="#4dd2ff" stroke-linecap="round" stroke-linejoin="round" stroke-width="0.5"><title>2022-02-08 2.2km</title></polyline></svg>