<?xml version="1.0" encoding="utf-8" ?>
<svg baseProfile="full" height="300mm" version="1.1" viewBox="0,0,200,300" width="200mm" xmlns="http://www.w3.org/2000/svg" xmlns:ev="http://www.w3.org/2001/xml-events" xmlns:xlink="http://www.w3.org/1999/xlink"><defs /><rect fill="#222222" height="300" width="200" x="0" y="0" /><text fill="#FFFFFF" style="font-size:12px; font-family:Arial; font-weight:bold;" x="10" y="20">Over 10km Runs</text><text fill="#FFFFFF" style="font-size:4px; font-family:Arial" x="10" y="280">ATHLETE</text><text fill="#FFFFFF" style="font-size:9px; font-family:Arial" x="10" y="290">leslie</text><text fill="#FFFFFF" style="font-size:4px; font-family:Arial" x="120" y="280">STATISTICS</text><text fill="#FFFFFF" style="font-size:3px; font-family:Arial" x="120" y="285">Number: 14</text><text fill="#FFFFFF" style="font-size:3px; font-family:Arial" x="120" y="290">Weekly: 4.7</text><text fill="#FFFFFF" style="font-size:3px; font-family:Arial" x="141" y="285">Total: 29.8 km</text><text fill="#FFFFFF" style="font-size:3px; font-family:Arial" x="141" y="290">Avg: 2.1 km</text><text fill="#FFFFFF" style="font-size:3px; font-family:Arial" x="167" y="285">Min: 1.8 km</text><text fill="#FFFFFF" style="font-size:3px; font-family:Arial" x="167" y="290">Max: 2.5 km</text><polyline fill="none" points="36.66754098329693,65.17339659755817 36.99803278665058,64.81544874270912 35.581639343872666,64.61090702965157 34.826229507802054,65.17339659755817 28.027540983399376,59.0371224838309 22.78688524547033,56.071237496158574 12.399999999906868,46.71327711979393 20.851147540612146,36.43471831426723 21.795409835875034,36.230168357666116 31.899016393115744,45.588268045161385 35.39278688491322,47.78714774159016 55.5999999998603,64.91771957697347 50.359344262164086,70.95167251228122 49.22622950794175,71.76983164233388 48.47081967187114,71.36075219610939" stroke="#4dd2ff" stroke-linecap="round" stroke-linejoin="round" stroke-width="0.5"><title>2022-02-27 2.2km</title></polyline><polyline fill="none" points="104.79213114734739,68.77842554956442 104.08393442607485,69.39204890659312 104.55606557358988,68.82956084969919 98.79606557358056,65.96597832243424 93.98032786860131,61.36376772477524 87.8426229506731,57.9887941723573 78.39999999990687,49.500152827764396 78.54163934406824,48.528554822318256 87.18163934419863,38.60795109340688 102.43147540977225,51.18766196677461 106.53901639324613,55.53425779333338 109.18295081960969,56.86379939393373 121.5999999998603,67.19322940259008" stroke="#4dd2ff" stroke-linecap="round" stroke-linejoin="round" stroke-width="0.5"><title>2022-02-26 2.0km</title></polyline><polyline fill="none" points="171.21704918029718,68.16480184358079 169.47016393439844,68.01139580935705 168.384262295207,67.09095890249591 167.06229508202523,67.55117750627687 160.0275409836322,61.31263306317851 152.89836065564305,57.01720968296286 144.49442622927018,49.55129241652321 144.39999999990687,48.63083138217917 153.04000000003725,38.50568059331272 187.2222950819414,66.68187544686953 187.5999999998603,67.55117750627687 185.85311475396156,69.49431940668728" stroke="#4dd2ff" stroke-linecap="round" stroke-linejoin="round" stroke-width="0.5"><title>2022-02-24 2.1km</title></polyline><polyline fill="none" points="38.59473684197292,117.0579055386479 38.35789473680779,115.72401262546191 36.32105263136327,115.1596725579584 35.042105263099074,115.77531624567928 29.45263157878071,111.97883829363855 28.363157894695178,110.23450374678941 23.247368420939893,107.31016852176981 12.399999999906868,97.66490689688362 21.021052631549537,86.9420944613521 55.5999999998603,115.62140537396772" stroke="#4dd2ff" stroke-linecap="round" stroke-linejoin="round" stroke-width="0.5"><title>2022-02-23 2.0km</title></polyline><polyline fill="none" points="103.70622950815596,112.89214845653623 101.7232786884997,112.22738791338634 101.01508196722716,112.89214845653623 94.26360655715689,107.1138242954039 88.12590163946152,103.4320355001837 78.39999999990687,94.94339353922987 87.41770491795614,84.25574097043136 121.5999999998603,112.84101305250078 115.69836065568961,119.74425902951043 112.86557377036661,117.39204948139377" stroke="#4dd2ff" stroke-linecap="round" stroke-linejoin="round" stroke-width="0.5"><title>2022-02-18 2.2km</title></polyline><polyline fill="none" points="169.21400437643752,116.94816591334529 169.45032822759822,115.71957451605704 168.36323851183988,115.20766080199974 166.99256017501466,115.71957451605704 165.57461706758477,114.95170380565105 160.70634573302232,111.06114601995796 160.04463894944638,109.73016079619993 154.75098468270153,106.7610308578005 144.39999999990687,97.39283201273065 153.42757111578248,87.0518340865965 173.0897155359853,103.9966572606354 187.5999999998603,115.31004357454367 187.5999999998603,116.02672256610822" stroke="#4dd2ff" stroke-linecap="round" stroke-linejoin="round" stroke-width="0.5"><title>2022-02-17 2.0km</title></polyline><polyline fill="none" points="37.54485776810907,164.82018773118034 36.12691466091201,163.43802175688324 34.756236323853955,163.7963613437605 30.07702407008037,160.57129850587808 27.713785558007658,157.90933076431975 23.318161925766617,155.65688867110293 12.399999999906868,146.23750740045216 12.919912472600117,144.54814853635617 21.14398249448277,135.17981226881966 36.741356673883274,147.92686221608892 37.214004376437515,149.30905859963968 42.602188183693215,152.94371023139684 55.60000000009313,163.7451699853409" stroke="#4dd2ff" stroke-linecap="round" stroke-linejoin="round" stroke-width="0.5"><title>2022-02-15 2.0km</title></polyline><polyline fill="none" points="101.70589543925598,160.2272529337788 101.41757508320734,161.1640724533354 100.26429365947843,160.9558904436999 93.34460511663929,154.81449395872187 90.55750834243372,153.77357408514945 89.35617352603003,151.8999145036214 80.7065628473647,145.08183413173538 78.39999999990687,142.21926197217545 86.85739710764028,131.96595514583169 106.7515016682446,149.19350868352922 121.5999999998603,160.79975389671745 120.78309232462198,162.93361709424062 117.13103448250331,166.88905402622186 115.01668520574458,168.03404485416831" stroke="#4dd2ff" stroke-linecap="round" stroke-linejoin="round" stroke-width="0.5"><title>2022-02-14 2.1km</title></polyline><polyline fill="none" points="180.69094822579063,171.59999999997672 169.05174286826514,162.0684789775405 162.94825713173486,159.07064414198976 146.05721521028318,144.46568633499555 159.04486509086564,128.39999999996508 181.04580204794183,146.69487713626586 179.55541599611752,151.23011289647548 173.45193025958724,159.91618816019036 185.94278478971682,170.13953057164326 185.8008432611823,171.292532919324" stroke="#4dd2ff" stroke-linecap="round" stroke-linejoin="round" stroke-width="0.5"><title>2022-02-13 1.8km</title></polyline><polyline fill="none" points="45.57013124902733,217.60070303973043 44.449377794517204,218.52894856245257 44.64715781598352,219.59999999997672 43.32862434023991,217.8863171399571 35.285570138832554,216.45824580884073 34.29667003196664,212.17401937319664 29.74772954103537,210.74593974713935 29.61587619315833,209.3892621814739 22.166162055917084,203.81972414045595 20.91355525352992,200.3208956491435 22.82542879343964,197.32188989088172 16.034981393953785,190.4669852401712 27.04473591595888,176.40000000002328 47.28422476747073,193.60882247023983 46.95459139859304,196.75064966181526 40.2959973460529,204.96219605393708 48.20719820028171,213.6020969255478 51.17389852064662,215.03017240407644 51.965018606046215,216.17263129382627 51.04204517300241,218.52894856245257 51.833165258634835,218.38614161597798 51.569458563113585,217.45789595827227" stroke="#4dd2ff" stroke-linecap="round" stroke-linejoin="round" stroke-width="0.5"><title>2022-02-12 2.0km</title></polyline><polyline fill="none" points="116.44589198101312,219.59999999997672 112.91435307147913,216.97505155851832 111.04471482499503,218.25002734881127 103.56616183998995,213.00011693441775 100.93481912300922,209.5501612764201 95.46439610631205,207.0001866449602 94.70269163581543,204.9752023059409 91.5173820310738,203.40021174197318 78.49916016845964,191.85020755440928 88.60905587044545,177.97503173875157 90.89416928216815,176.39999999996508 107.79015935957432,189.60019170719897 121.50083983154036,201.82521877641557 116.86136714671738,197.62522579327924 113.60681168083102,196.2752244216972 105.08957078121603,205.8751958356006 104.81258733780123,207.45018262555823 110.62923965905793,211.2751405457966 110.00602691038512,213.225113642402 112.70661548851058,216.3750624069362" stroke="#4dd2ff" stroke-linecap="round" stroke-linejoin="round" stroke-width="0.5"><title>2022-02-12 2.2km</title></polyline><polyline fill="none" points="163.5519999996759,206.9941781660891 159.61599999968894,202.88712910172762 155.15199999976903,200.75561333924998 144.39999999990687,190.56584055215353 148.7679999996908,184.1711641762522 152.94399999966845,179.85602507618023 187.5999999998603,208.50182317732833 185.96799999987707,212.03697834099876 181.50399999972433,216.14397492381977 174.97599999979138,211.51710367621854 174.63999999966472,210.6333158799098 172.71999999973923,212.08896578667918 170.70399999967776,210.68530342745362" stroke="#4dd2ff" stroke-linecap="round" stroke-linejoin="round" stroke-width="0.5"><title>2022-02-10 2.3km</title></polyline><polyline fill="none" points="37.66792452801019,257.60665918007726 36.70899001089856,256.3603397110128 34.887014428153634,256.8796397536644 30.140288568101823,253.91962445992976 12.543840177357197,238.65198259835597 12.399999999906868,237.66528704750817 14.9411764703691,234.39360258483794 20.742730299476534,228.05791709735058 55.5999999998603,256.77577977534384 53.490344061749056,260.20315109862713 49.46281908988021,263.9420829026494 42.17491675890051,258.95683615404414 40.64062153128907,260.15122135268757 38.43507214169949,258.2817479856312 38.003551609115675,258.95683615404414 38.962486126227304,257.60665918007726" stroke="#4dd2ff" stroke-linecap="round" stroke-linejoin="round" stroke-width="0.5"><title>2022-02-09 2.5km</title></polyline><polyline fill="none" points="90.46140155708417,251.56917765038088 91.13414905429818,249.17506646102993 89.98086763056926,247.24936252780026 81.47541712992825,240.06696168350754 79.26496106758714,239.49444837420015 78.39999999990687,237.4646247740602 78.92858731886372,235.95526503713336 84.69499443797395,228.72070354560856 87.0015572856646,226.89903986192076 105.9345939932391,243.18975350289838 121.5999999998603,255.5246481829672 121.1194660733454,257.2941937232972 113.86340378178284,265.10096013813745 107.13592880964279,261.6139483125298 105.74238042254001,260.20872979675187 106.03070077858865,258.7514632411767 104.396885428112,257.6585113804904" stroke="#4dd2ff" stroke-linecap="round" stroke-linejoin="round" stroke-width="0.5"><title>2022-02-08 2.2km</title></polyline></svg>