<?xml version="1.0" encoding="utf-8" ?>
<svg baseProfile="full" height="300mm" version="1.1" viewBox="0,0,200,300" width="200mm" xmlns="http://www.w3.org/2000/svg" xmlns:ev="http://www.w3.org/2001/xml-events" xmlns:xlink="http://www.w3.org/1999/xlink"><defs /><rect fill="#222222" height="300" width="200" x="0" y="0" /><text fill="#FFFFFF" style="font-size:12px; font-family:Arial; font-weight:bold;" x="10" y="20">Over 10km Runs</text><text fill="#FFFFFF" style="font-size:4px; font-family:Arial" x="10" y="280">ATHLETE</text><text fill="#FFFFFF" style="font-size:9px; font-family:Arial" x="10" y="290">leslie</text><text fill="#FFFFFF" style="font-size:4px; font-family:Arial" x="120" y="280">STATISTICS</text><text fill="#FFFFFF" style="font-size:3px; font-family:Arial" x="120" y="285">Number: 19</text><text fill="#FFFFFF" style="font-size:3px; font-family:Arial" x="120" y="290">Weekly: 3.8</text><text fill="#FFFFFF" style="font-size:3px; font-family:Arial" x="141" y="285">Total: 40.5 km</text><text fill="#FFFFFF" style="font-size:3px; font-family:Arial" x="141" y="290">Avg: 2.1 km</text><text fill="#FFFFFF" style="font-size:3px; font-family:Arial" x="167" y="285">Min: 1.8 km</text><text fill="#FFFFFF" style="font-size:3px; font-family:Arial" x="167" y="290">Max: 2.7 km</text><polyline fill="none" points="36.550000000046566,65.7555281384266 34.29262295085937,65.18025477929041 33.18606557371095,63.50237128563458 28.0073770491872,59.66719300299883 26.63524590153247,59.85895244625863 21.810655737761408,56.9346148854238 12.25,48.4012279571034 19.863114754203707,38.90890391805442 20.792622950859368,38.717138389416505 52.75,65.0364363612025 52.263114754110575,66.2828616106417" stroke="#4dd2ff" stroke-linecap="round" stroke-linejoin="round" stroke-width="0.5"><title>2022-03-25 2.0km</title></polyline><polyline fill="none" points="78.03642384102568,60.561496938345954 65.87748344358988,53.734829754568636 57.25,45.50400333508151 64.93874172191136,35.96580091310898 65.78807947016321,35.675295144785196 97.75,62.4497116926359 96.94536423846148,64.48316775623243 92.11754966899753,69.3247048552148 85.90397350979038,64.57999884273158 83.22185430442914,66.27454057964496 81.92549668881111,65.83880168705946 75.44370860909112,60.75516023609089 72.40397350979038,57.70495676249266 72.71688741724938,56.93029969034251" stroke="#4dd2ff" stroke-linecap="round" stroke-linejoin="round" stroke-width="0.5"><title>2022-03-22 2.7km</title></polyline><polyline fill="none" points="138.8714347940404,72.75 139.06517958454788,71.3510646612267 136.9985684864223,72.54015982866986 129.5071032550186,63.866726092470344 124.9218098805286,62.607672768994235 119.75528213498183,59.66987528192112 105.1598412534222,46.51962433807785 116.78452868107706,32.25 139.1297611813061,50.64658412308199 137.96729243872687,50.64658412308199 129.83001123927534,60.998880016675685 133.83407024201006,63.726831359788775 135.12570217857137,65.82525021332549 134.86737579130568,67.64387618901674 139.8401587465778,71.91063904034672" stroke="#4dd2ff" stroke-linecap="round" stroke-linejoin="round" stroke-width="0.5"><title>2022-03-06 2.0km</title></polyline><polyline fill="none" points="173.9744897959754,67.71861129591707 169.15306122461334,62.645834793220274 165.75510204094462,64.8838290576823 167.04081632662565,63.24263397883624 164.05612244899385,61.3527681074338 162.31122448970564,59.11476230568951 155.65306122461334,55.1360672689043 147.25,47.52674864057917 155.97448979574256,37.28138870402472 174.15816326532513,53.096977104840335 187.75,63.64049981354037" stroke="#4dd2ff" stroke-linecap="round" stroke-linejoin="round" stroke-width="0.5"><title>2022-03-05 2.1km</title></polyline><polyline fill="none" points="30.126779846614227,108.09661815688014 28.529846659395844,108.00052871688968 27.06599123752676,106.22287156182574 20.633899233303964,102.28318192751613 12.25,94.40373228420503 20.72261774353683,84.55428826669231 52.75,111.31560632993933 52.30640744790435,112.56476170220412 48.22535596950911,117.17700726480689 46.93893756857142,117.94571173330769 45.82995618856512,117.12896320596337" stroke="#4dd2ff" stroke-linecap="round" stroke-linejoin="round" stroke-width="0.5"><title>2022-03-03 2.0km</title></polyline><polyline fill="none" points="80.00081967213191,111.72505931020714 80.31065573752858,111.38948319625342 78.98278688522987,111.19772534025833 78.2745901637245,111.72505931020714 71.90081967227161,105.97230232856236 66.98770491802134,103.1917851526523 57.25,94.41869729972677 65.17295081960037,84.78254841960734 66.05819672136568,84.5907828353229 75.5303278688807,93.36400129232788 78.80573770496994,95.42545100767165 97.75,111.48536210338352 92.83688524598256,117.14219298021635 91.7745901637245,117.9092171646771 91.06639344268478,117.52570518385619" stroke="#4dd2ff" stroke-linecap="round" stroke-linejoin="round" stroke-width="0.5"><title>2022-02-27 2.2km</title></polyline><polyline fill="none" points="126.9926229508128,115.1047739526839 126.32868852466345,115.68004584993469 126.77131147542968,115.15271329664392 121.37131147552282,112.46810467727482 116.85655737691559,108.15353224199498 111.10245901648887,104.98949453659588 102.25,97.03139327606186 102.38278688536957,96.12052014592336 110.4827868854627,86.81995415006531 124.7795081967488,98.6134330938221 128.63032786897384,102.68836668127915 131.10901639354415,103.93481193180196 142.75,113.61865256493911" stroke="#4dd2ff" stroke-linecap="round" stroke-linejoin="round" stroke-width="0.5"><title>2022-02-26 2.0km</title></polyline><polyline fill="none" points="172.39098360668868,114.52950172830606 170.75327868852764,114.38568357127951 169.7352459016256,113.52277397108264 168.49590163934045,113.95422891213093 161.90081967203878,108.10559349675896 155.21721311472356,104.0786340777995 147.33852459001355,97.07933664048323 147.25,96.21640442078933 155.35000000009313,86.72407555620885 187.3959016392473,113.13925823144382 187.75,113.95422891213093 186.11229508183897,115.77592444379115" stroke="#4dd2ff" stroke-linecap="round" stroke-linejoin="round" stroke-width="0.5"><title>2022-02-24 2.1km</title></polyline><polyline fill="none" points="36.80756578943692,164.11678644246422 36.5855263157282,162.86626183637418 34.67598684201948,162.33719302306417 33.4769736842718,162.9143589803134 28.236842105165124,159.35516090027522 27.21546052605845,157.71984726260416 22.419407894602045,154.9782829891774 12.25,145.93585021584295 20.332236842019483,135.88321355753578 52.75,162.77006753807655" stroke="#4dd2ff" stroke-linecap="round" stroke-linejoin="round" stroke-width="0.5"><title>2022-02-23 2.0km</title></polyline><polyline fill="none" points="80.97459016391076,160.21138917800272 79.11557377059944,159.58817616879242 78.45163934421726,160.21138917800272 72.1221311474219,154.7942102769739 66.36803278699517,151.34253328142222 57.25,143.38443144300254 65.70409836061299,133.36475715978304 97.75,160.16344973671949 92.21721311472356,166.63524284015875 89.56147540989332,164.4300463888212" stroke="#4dd2ff" stroke-linecap="round" stroke-linejoin="round" stroke-width="0.5"><title>2022-02-18 2.2km</title></polyline><polyline fill="none" points="125.51312910276465,164.01390554377576 125.7346827131696,162.8621011088253 124.71553610474803,162.38218200195115 123.4305251641199,162.8621011088253 122.10120350075886,162.14222231780877 117.53719912469387,158.4948243937688 116.91684901504777,157.2470257465029 111.95404813997447,154.463466429268 102.25,145.68078001198592 110.71334792091511,135.98609445622424 129.14660831494257,151.87186618190026 142.75,162.47816585120745 142.75,163.1500524057774" stroke="#4dd2ff" stroke-linecap="round" stroke-linejoin="round" stroke-width="0.5"><title>2022-02-17 2.0km</title></polyline><polyline fill="none" points="170.82330415747128,163.89392599795246 169.49398249480873,162.59814539703075 168.20897155371495,162.93408875976456 163.82221006578766,159.91059234924614 161.60667396057397,157.41499759152066 157.4857768053189,155.30333312915172 147.25,146.47266318788752 147.73741794307716,144.88888925279025 155.44748358870856,136.10607400198933 170.07002188195474,148.05643332755426 170.51312910299748,149.3522424371331 175.56455142237246,152.75972834188724 187.75,162.88609686121345" stroke="#4dd2ff" stroke-linecap="round" stroke-linejoin="round" stroke-width="0.5"><title>2022-02-15 2.0km</title></polyline><polyline fill="none" points="34.09927697456442,208.3380496253958 33.82897664071061,209.21631792502012 32.747775305993855,209.0211472909432 26.26056729699485,203.26358808629448 23.647664071293548,202.28772570483852 22.521412680856884,200.5311698471196 14.412402669666335,194.13921949849464 12.25,191.45555809891084 20.17880978854373,181.84308294922812 38.82953281421214,197.99391439079773 52.75,208.8747692781617 51.98414905462414,210.8752660258324 48.560344827594236,214.58348814956844 46.57814238057472,215.65691705077188" stroke="#4dd2ff" stroke-linecap="round" stroke-linejoin="round" stroke-width="0.5"><title>2022-02-14 2.1km</title></polyline><polyline fill="none" points="91.2727639619261,219.0 80.36100893933326,210.06419904140057 74.63899106136523,207.25372888310812 58.80363925965503,193.561580939102 70.97956102294847,178.5 91.60543942009099,195.6514473152347 90.20820249640383,199.90323084039846 84.4861846184358,208.046426400193 96.1963607405778,217.63080991094466 96.06329055735841,218.71174961182987" stroke="#4dd2ff" stroke-linecap="round" stroke-linejoin="round" stroke-width="0.5"><title>2022-02-13 1.8km</title></polyline><polyline fill="none" points="133.34699804591946,217.12565909972182 132.29629168263637,217.99588927725563 132.4817104525864,219.0 131.24558531912044,217.39342231868068 123.70522200525738,216.05460544576636 122.77812815504149,212.03814316232456 118.51349644479342,210.69931851292495 118.38988393126056,209.42743329511723 111.40577692748047,204.2059913816629 110.23145805043168,200.9258396710502 112.02383949398063,198.11427177267615 105.65779505693354,191.68779866263503 115.97943992121145,178.5 134.95396071951836,194.63327106583165 134.64492943626828,197.57873405795544 128.40249751205556,205.2770588005078 135.8192483128514,213.3769658677047 138.60052986326627,214.71578662877437 139.3422049432993,215.7868418379221 138.4769173497334,217.99588927725563 139.21859242999926,217.862007764983 138.97136740316637,216.99177746084752" stroke="#4dd2ff" stroke-linecap="round" stroke-linejoin="round" stroke-width="0.5"><title>2022-02-12 2.0km</title></polyline><polyline fill="none" points="182.91802373202518,219.0 179.60720600443892,216.5391108361655 177.85442014830187,217.73440063960152 170.8432767249178,212.81260962609667 168.37639292771928,209.57827619666932 163.24787134956568,207.1876749796793 162.5337734085042,205.28925216186326 159.54754565400071,203.81269850814715 147.34296265779994,192.98456958233146 156.82098987838253,179.97659225511597 158.96328370203264,178.5 174.80327439960092,190.8751797255245 187.65703734196723,202.3361426029005 183.3075317000039,198.3986491812393 180.25638595083728,197.13302289537387 172.2714726072736,206.1329960959265 172.0118006290868,207.60954621148994 177.46491218032315,211.19544426171342 176.8806502285879,213.02354403981008 179.41245202044956,215.97662100655725" stroke="#4dd2ff" stroke-linecap="round" stroke-linejoin="round" stroke-width="0.5"><title>2022-02-12 2.2km</title></polyline><polyline fill="none" points="30.204999999841675,255.932042030734 26.514999999897555,252.08168353291694 22.329999999841675,250.08338750561234 12.25,240.53047551767668 16.34499999973923,234.53546641522553 20.259999999776483,230.49002350895898 52.75,257.34545922878897 51.21999999997206,260.65966719476273 47.03499999991618,264.5099764910992 40.91499999980442,260.172284696484 40.5999999998603,259.34373363747727 38.799999999813735,260.70840542501537 36.90999999968335,259.3924719632487" stroke="#4dd2ff" stroke-linecap="round" stroke-linejoin="round" stroke-width="0.5"><title>2022-02-10 2.3km</title></polyline><polyline fill="none" points="80.93867924506776,258.3812429813552 80.0396781351883,257.2128184791072 78.33157602627762,257.6996622690931 73.88152053253725,254.92464793124236 57.3848501665052,240.61123368598055 57.25,239.68620660708984 59.63235294097103,236.6190024233074 65.07130965590477,230.67929727880983 97.75,257.60229353944305 95.77219755807891,260.81545415503206 91.99639289686456,264.3207027212484 85.1639844616875,259.64703389443457 83.72558268578723,260.76677001820644 81.6578801330179,259.0141387365875 81.25332963350229,259.64703389443457 82.15233074338175,258.3812429813552" stroke="#4dd2ff" stroke-linecap="round" stroke-linejoin="round" stroke-width="0.5"><title>2022-02-09 2.5km</title></polyline><polyline fill="none" points="113.55756395985372,252.72110404726118 114.18826473853551,250.47662480722647 113.10706340381876,248.6712773698382 105.13320355932228,241.93777657829924 103.06090100086294,241.40104535076534 102.25,239.49808572564507 102.74555061152205,238.08306097227614 108.1515572858043,231.3006595739862 110.31395995547064,229.59284987056162 128.06368186883628,244.86539390892722 142.75,256.4293576715281 142.29949944396503,258.0883066155948 135.49694104562514,265.4071501294966 129.18993325927295,262.1380765429931 127.8834816464223,260.8206841844367 128.15378198004328,259.4544967885595 126.62208008905873,258.4298544191988" stroke="#4dd2ff" stroke-linecap="round" stroke-linejoin="round" stroke-width="0.5"><title>2022-02-08 2.2km</title></polyline></svg>