<?xml version="1.0" encoding="utf-8" ?>
<svg baseProfile="full" height="300mm" version="1.1" viewBox="0,0,200,300" width="200mm" xmlns="http://www.w3.org/2000/svg" xmlns:ev="http://www.w3.org/2001/xml-events" xmlns:xlink="http://www.w3.org/1999/xlink"><defs /><rect fill="#222222" height="300" width="200" x="0" y="0" /><text fill="#FFFFFF" style="font-size:12px; font-family:Arial; font-weight:bold;" x="10" y="20">Over 10km Runs</text><text fill="#FFFFFF" style="font-size:4px; font-family:Arial" x="10" y="280">ATHLETE</text><text fill="#FFFFFF" style="font-size:9px; font-family:Arial" x="10" y="290">leslie</text><text fill="#FFFFFF" style="font-size:4px; font-family:Arial" x="120" y="280">STATISTICS</text><text fill="#FFFFFF" style="font-size:3px; font-family:Arial" x="120" y="285">Number: 2</text><text fill="#FFFFFF" style="font-size:3px; font-family:Arial" x="120" y="290">Weekly: 2.0</text><text fill="#FFFFFF" style="font-size:3px; font-family:Arial" x="141" y="285">Total: 4.7 km</text><text fill="#FFFFFF" style="font-size:3px; font-family:Arial" x="141" y="290">Avg: 2.4 km</text><text fill="#FFFFFF" style="font-size:3px; font-family:Arial" x="167" y="285">Min: 2.2 km</text><text fill="#FFFFFF" style="font-size:3px; font-family:Arial" x="167" y="290">Max: 2.5 km</text><polyline fill="none" points="109.16981132049114,119.01664795028046 106.77247502747923,115.90084927750286 102.21753607038409,117.19909938413184 90.35072142025456,109.79906114982441 46.35960044385865,71.62995649583172 46.0,69.16321761871222 52.35294117592275,60.98400646203663 66.85682574892417,45.144792743376456 154.0,116.93944943835959 148.7258601547219,125.50787774659693 138.65704772481695,134.85520725662354 120.43729189736769,122.39209038508125 116.60155382845551,125.37805338180624 111.08768035424873,120.70436996407807 110.00887902313843,122.39209038508125 112.40621531615034,119.01664795028046" stroke="#4dd2ff" stroke-linecap="round" stroke-linejoin="round" stroke-width="0.5"><title>2022-02-09 2.5km</title></polyline><polyline fill="none" points="76.15350389294326,223.92294412583578 77.83537263609469,217.9376661524875 74.95216907653958,213.12340631941333 53.6885428247042,195.16740420868155 48.16240266896784,193.73612093529664 46.0,188.6615619349759 47.32146829739213,184.88816259265877 61.7374860951677,166.80175886384677 67.50389321474358,162.24759965471458 114.83648498309776,202.97438375710044 154.0,233.8116204572143 152.7986651835963,238.2354843080975 134.65850945468992,257.7524003452854 117.83982202457264,249.03487078112084 114.35595105681568,245.52182449179236 115.07675194693729,241.87865810282528 110.99221357097849,239.14627845108043" stroke="#4dd2ff" stroke-linecap="round" stroke-linejoin="round" stroke-width="0.5"><title>2022-02-08 2.2km</title></polyline></svg>