<?xml version="1.0" encoding="utf-8" ?>
<svg baseProfile="full" height="300mm" version="1.1" viewBox="0,0,200,300" width="200mm" xmlns="http://www.w3.org/2000/svg" xmlns:ev="http://www.w3.org/2001/xml-events" xmlns:xlink="http://www.w3.org/1999/xlink"><defs /><rect fill="#222222" height="300" width="200" x="0" y="0" /><text fill="#FFFFFF" style="font-size:12px; font-family:Arial; font-weight:bold;" x="10" y="20">Over 10km Runs</text><text fill="#FFFFFF" style="font-size:4px; font-family:Arial" x="10" y="280">ATHLETE</text><text fill="#FFFFFF" style="font-size:9px; font-family:Arial" x="10" y="290">leslie</text><text fill="#FFFFFF" style="font-size:4px; font-family:Arial" x="120" y="280">STATISTICS</text><text fill="#FFFFFF" style="font-size:3px; font-family:Arial" x="120" y="285">Number: 13</text><text fill="#FFFFFF" style="font-size:3px; font-family:Arial" x="120" y="290">Weekly: 4.3</text><text fill="#FFFFFF" style="font-size:3px; font-family:Arial" x="141" y="285">Total: 27.6 km</text><text fill="#FFFFFF" style="font-size:3px; font-family:Arial" x="141" y="290">Avg: 2.1 km</text><text fill="#FFFFFF" style="font-size:3px; font-family:Arial" x="167" y="285">Min: 1.8 km</text><text fill="#FFFFFF" style="font-size:3px; font-family:Arial" x="167" y="290">Max: 2.5 km</text><polyline fill="none" points="38.79213114734739,68.77842554956442 38.08393442607485,69.39204890659312 38.556065573589876,68.82956084969919 32.79606557358056,65.96597832243424 27.980327868601307,61.36376772477524 21.842622950673103,57.9887941723573 12.399999999906868,49.500152827764396 12.541639344068244,48.528554822318256 21.18163934419863,38.60795109340688 36.43147540977225,51.18766196677461 40.53901639324613,55.53425779333338 43.18295081960969,56.86379939393373 55.5999999998603,67.19322940259008" stroke="#4dd2ff" stroke-linecap="round" stroke-linejoin="round" stroke-width="0.5"><title>2022-02-26 2.0km</title></polyline><polyline fill="none" points="105.21704918029718,68.16480184358079 103.47016393439844,68.01139580935705 102.38426229520701,67.09095890249591 101.06229508202523,67.55117750627687 94.0275409836322,61.31263306317851 86.89836065564305,57.01720968296286 78.49442622927018,49.55129241652321 78.39999999990687,48.63083138217917 87.04000000003725,38.50568059331272 121.22229508194141,66.68187544686953 121.5999999998603,67.55117750627687 119.85311475396156,69.49431940668728" stroke="#4dd2ff" stroke-linecap="round" stroke-linejoin="round" stroke-width="0.5"><title>2022-02-24 2.1km</title></polyline><polyline fill="none" points="170.59473684197292,69.0579055386479 170.3578947368078,67.72401262546191 168.32105263136327,67.1596725579584 167.04210526309907,67.77531624567928 161.4526315787807,63.978838293638546 160.36315789469518,62.234503746789414 155.2473684209399,59.31016852176981 144.39999999990687,49.66490689688362 153.02105263154954,38.9420944613521 187.5999999998603,67.62140537396772" stroke="#4dd2ff" stroke-linecap="round" stroke-linejoin="round" stroke-width="0.5"><title>2022-02-23 2.0km</title></polyline><polyline fill="none" points="37.70622950815596,112.89214845653623 35.723278688499704,112.22738791338634 35.01508196722716,112.89214845653623 28.26360655715689,107.1138242954039 22.125901639461517,103.4320355001837 12.399999999906868,94.94339353922987 21.417704917956144,84.25574097043136 55.5999999998603,112.84101305250078 49.69836065568961,119.74425902951043 46.86557377036661,117.39204948139377" stroke="#4dd2ff" stroke-linecap="round" stroke-linejoin="round" stroke-width="0.5"><title>2022-02-18 2.2km</title></polyline><polyline fill="none" points="103.21400437643752,116.94816591334529 103.45032822759822,115.71957451605704 102.36323851183988,115.20766080199974 100.99256017501466,115.71957451605704 99.57461706758477,114.95170380565105 94.70634573302232,111.06114601995796 94.04463894944638,109.73016079619993 88.75098468270153,106.7610308578005 78.39999999990687,97.39283201273065 87.42757111578248,87.0518340865965 107.0897155359853,103.9966572606354 121.5999999998603,115.31004357454367 121.5999999998603,116.02672256610822" stroke="#4dd2ff" stroke-linecap="round" stroke-linejoin="round" stroke-width="0.5"><title>2022-02-17 2.0km</title></polyline><polyline fill="none" points="169.54485776810907,116.82018773118034 168.126914660912,115.43802175688324 166.75623632385395,115.79636134376051 162.07702407008037,112.57129850587808 159.71378555800766,109.90933076431975 155.31816192576662,107.65688867110293 144.39999999990687,98.23750740045216 144.91991247260012,96.54814853635617 153.14398249448277,87.17981226881966 168.74135667388327,99.92686221608892 169.21400437643752,101.30905859963968 174.60218818369322,104.94371023139684 187.60000000009313,115.74516998534091" stroke="#4dd2ff" stroke-linecap="round" stroke-linejoin="round" stroke-width="0.5"><title>2022-02-15 2.0km</title></polyline><polyline fill="none" points="35.70589543925598,160.2272529337788 35.41757508320734,161.1640724533354 34.264293659478426,160.9558904436999 27.344605116639286,154.81449395872187 24.55750834243372,153.77357408514945 23.356173526030034,151.8999145036214 14.706562847364694,145.08183413173538 12.399999999906868,142.21926197217545 20.85739710764028,131.96595514583169 40.7515016682446,149.19350868352922 55.5999999998603,160.79975389671745 54.783092324621975,162.93361709424062 51.13103448250331,166.88905402622186 49.01668520574458,168.03404485416831" stroke="#4dd2ff" stroke-linecap="round" stroke-linejoin="round" stroke-width="0.5"><title>2022-02-14 2.1km</title></polyline><polyline fill="none" points="114.69094822579063,171.59999999997672 103.05174286826514,162.0684789775405 96.94825713173486,159.07064414198976 80.05721521028318,144.46568633499555 93.04486509086564,128.39999999996508 115.04580204794183,146.69487713626586 113.55541599611752,151.23011289647548 107.45193025958724,159.91618816019036 119.94278478971682,170.13953057164326 119.80084326118231,171.292532919324" stroke="#4dd2ff" stroke-linecap="round" stroke-linejoin="round" stroke-width="0.5"><title>2022-02-13 1.8km</title></polyline><polyline fill="none" points="177.57013124902733,169.60070303973043 176.4493777945172,170.52894856245257 176.64715781598352,171.59999999997672 175.3286243402399,169.8863171399571 167.28557013883255,168.45824580884073 166.29667003196664,164.17401937319664 161.74772954103537,162.74593974713935 161.61587619315833,161.3892621814739 154.16616205591708,155.81972414045595 152.91355525352992,152.3208956491435 154.82542879343964,149.32188989088172 148.03498139395379,142.4669852401712 159.04473591595888,128.40000000002328 179.28422476747073,145.60882247023983 178.95459139859304,148.75064966181526 172.2959973460529,156.96219605393708 180.2071982002817,165.6020969255478 183.17389852064662,167.03017240407644 183.96501860604621,168.17263129382627 183.0420451730024,170.52894856245257 183.83316525863484,170.38614161597798 183.56945856311359,169.45789595827227" stroke="#4dd2ff" stroke-linecap="round" stroke-linejoin="round" stroke-width="0.5"><title>2022-02-12 2.0km</title></polyline><polyline fill="none" points="50.44589198101312,219.59999999997672 46.91435307147913,216.97505155851832 45.044714824995026,218.25002734881127 37.566161839989945,213.00011693441775 34.93481912300922,209.5501612764201 29.46439610631205,207.0001866449602 28.702691635815427,204.9752023059409 25.517382031073794,203.40021174197318 12.499160168459639,191.85020755440928 22.609055870445445,177.97503173875157 24.89416928216815,176.39999999996508 41.79015935957432,189.60019170719897 55.50083983154036,201.82521877641557 50.861367146717384,197.62522579327924 47.606811680831015,196.2752244216972 39.089570781216025,205.8751958356006 38.81258733780123,207.45018262555823 44.62923965905793,211.2751405457966 44.00602691038512,213.225113642402 46.70661548851058,216.3750624069362" stroke="#4dd2ff" stroke-linecap="round" stroke-linejoin="round" stroke-width="0.5"><title>2022-02-12 2.2km</title></polyline><polyline fill="none" points="97.5519999996759,206.9941781660891 93.61599999968894,202.88712910172762 89.15199999976903,200.75561333924998 78.39999999990687,190.56584055215353 82.7679999996908,184.1711641762522 86.94399999966845,179.85602507618023 121.5999999998603,208.50182317732833 119.96799999987707,212.03697834099876 115.50399999972433,216.14397492381977 108.97599999979138,211.51710367621854 108.63999999966472,210.6333158799098 106.71999999973923,212.08896578667918 104.70399999967776,210.68530342745362" stroke="#4dd2ff" stroke-linecap="round" stroke-linejoin="round" stroke-width="0.5"><title>2022-02-10 2.3km</title></polyline><polyline fill="none" points="169.6679245280102,209.60665918007726 168.70899001089856,208.36033971101278 166.88701442815363,208.87963975366438 162.14028856810182,205.91962445992976 144.5438401773572,190.65198259835597 144.39999999990687,189.66528704750817 146.9411764703691,186.39360258483794 152.74273029947653,180.05791709735058 187.5999999998603,208.77577977534384 185.49034406174906,212.20315109862713 181.4628190898802,215.94208290264942 174.1749167589005,210.95683615404414 172.64062153128907,212.15122135268757 170.4350721416995,210.28174798563123 170.00355160911568,210.95683615404414 170.9624861262273,209.60665918007726" stroke="#4dd2ff" stroke-linecap="round" stroke-linejoin="round" stroke-width="0.5"><title>2022-02-09 2.5km</title></polyline><polyline fill="none" points="24.461401557084173,251.56917765038088 25.134149054298177,249.17506646102993 23.980867630569264,247.24936252780026 15.475417129928246,240.06696168350754 13.264961067587137,239.49444837420015 12.399999999906868,237.4646247740602 12.92858731886372,235.95526503713336 18.694994437973946,228.72070354560856 21.001557285664603,226.89903986192076 39.934593993239105,243.18975350289838 55.5999999998603,255.5246481829672 55.11946607334539,257.2941937232972 47.863403781782836,265.10096013813745 41.13592880964279,261.6139483125298 39.74238042254001,260.20872979675187 40.03070077858865,258.7514632411767 38.396885428112,257.6585113804904" stroke="#4dd2ff" stroke-linecap="round" stroke-linejoin="round" stroke-width="0.5"><title>2022-02-08 2.2km</title></polyline></svg>