<?xml version="1.0" encoding="utf-8" ?>
<svg baseProfile="full" height="300mm" version="1.1" viewBox="0,0,200,300" width="200mm" xmlns="http://www.w3.org/2000/svg" xmlns:ev="http://www.w3.org/2001/xml-events" xmlns:xlink="http://www.w3.org/1999/xlink"><defs /><rect fill="#222222" height="300" width="200" x="0" y="0" /><text fill="#FFFFFF" style="font-size:12px; font-family:Arial; font-weight:bold;" x="10" y="20">Over 10km Runs</text><text fill="#FFFFFF" style="font-size:4px; font-family:Arial" x="10" y="280">ATHLETE</text><text fill="#FFFFFF" style="font-size:9px; font-family:Arial" x="10" y="290">leslie</text><text fill="#FFFFFF" style="font-size:4px; font-family:Arial" x="120" y="280">STATISTICS</text><text fill="#FFFFFF" style="font-size:3px; font-family:Arial" x="120" y="285">Number: 15</text><text fill="#FFFFFF" style="font-size:3px; font-family:Arial" x="120" y="290">Weekly: 3.8</text><text fill="#FFFFFF" style="font-size:3px; font-family:Arial" x="141" y="285">Total: 31.8 km</text><text fill="#FFFFFF" style="font-size:3px; font-family:Arial" x="141" y="290">Avg: 2.1 km</text><text fill="#FFFFFF" style="font-size:3px; font-family:Arial" x="167" y="285">Min: 1.8 km</text><text fill="#FFFFFF" style="font-size:3px; font-family:Arial" x="167" y="290">Max: 2.5 km</text><polyline fill="none" points="31.468565169721842,61.30305936728837 29.76516976999119,61.2005639646668 28.203723986633122,59.30439633259084 21.34282584860921,55.10206072265282 12.399999999906868,46.69731443648925 21.437458926346153,36.19124081777409 55.5999999998603,64.7366467519314 55.12683461094275,66.06907914899057 50.773713033879176,70.98880774911959 49.40153340622783,71.8087591821677 48.2186199342832,70.93756075302372" stroke="#4dd2ff" stroke-linecap="round" stroke-linejoin="round" stroke-width="0.5"><title>2022-03-03 2.0km</title></polyline><polyline fill="none" points="102.66754098329693,65.17339659755817 102.99803278665058,64.81544874270912 101.58163934387267,64.61090702965157 100.82622950780205,65.17339659755817 94.02754098339938,59.0371224838309 88.78688524547033,56.071237496158574 78.39999999990687,46.71327711979393 86.85114754061215,36.43471831426723 87.79540983587503,36.230168357666116 97.89901639311574,45.588268045161385 101.39278688491322,47.78714774159016 121.5999999998603,64.91771957697347 116.35934426216409,70.95167251228122 115.22622950794175,71.76983164233388 114.47081967187114,71.36075219610939" stroke="#4dd2ff" stroke-linecap="round" stroke-linejoin="round" stroke-width="0.5"><title>2022-02-27 2.2km</title></polyline><polyline fill="none" points="170.7921311473474,68.77842554956442 170.08393442607485,69.39204890659312 170.55606557358988,68.82956084969919 164.79606557358056,65.96597832243424 159.9803278686013,61.36376772477524 153.8426229506731,57.9887941723573 144.39999999990687,49.500152827764396 144.54163934406824,48.528554822318256 153.18163934419863,38.60795109340688 168.43147540977225,51.18766196677461 172.53901639324613,55.53425779333338 175.1829508196097,56.86379939393373 187.5999999998603,67.19322940259008" stroke="#4dd2ff" stroke-linecap="round" stroke-linejoin="round" stroke-width="0.5"><title>2022-02-26 2.0km</title></polyline><polyline fill="none" points="39.21704918029718,116.16480184358079 37.47016393439844,116.01139580935705 36.38426229520701,115.09095890249591 35.06229508202523,115.55117750627687 28.027540983632207,109.31263306317851 20.898360655643046,105.01720968296286 12.494426229270175,97.55129241652321 12.399999999906868,96.63083138217917 21.040000000037253,86.50568059331272 55.22229508194141,114.68187544686953 55.5999999998603,115.55117750627687 53.85311475396156,117.49431940668728" stroke="#4dd2ff" stroke-linecap="round" stroke-linejoin="round" stroke-width="0.5"><title>2022-02-24 2.1km</title></polyline><polyline fill="none" points="104.59473684197292,117.0579055386479 104.3578947368078,115.72401262546191 102.32105263136327,115.1596725579584 101.04210526309907,115.77531624567928 95.45263157878071,111.97883829363855 94.36315789469518,110.23450374678941 89.24736842093989,107.31016852176981 78.39999999990687,97.66490689688362 87.02105263154954,86.9420944613521 121.5999999998603,115.62140537396772" stroke="#4dd2ff" stroke-linecap="round" stroke-linejoin="round" stroke-width="0.5"><title>2022-02-23 2.0km</title></polyline><polyline fill="none" points="169.70622950815596,112.89214845653623 167.7232786884997,112.22738791338634 167.01508196722716,112.89214845653623 160.2636065571569,107.1138242954039 154.12590163946152,103.4320355001837 144.39999999990687,94.94339353922987 153.41770491795614,84.25574097043136 187.5999999998603,112.84101305250078 181.6983606556896,119.74425902951043 178.8655737703666,117.39204948139377" stroke="#4dd2ff" stroke-linecap="round" stroke-linejoin="round" stroke-width="0.5"><title>2022-02-18 2.2km</title></polyline><polyline fill="none" points="37.214004376437515,164.9481659133453 37.45032822759822,163.71957451605704 36.36323851183988,163.20766080199974 34.99256017501466,163.71957451605704 33.57461706758477,162.95170380565105 28.706345733022317,159.06114601995796 28.04463894944638,157.73016079619993 22.750984682701528,154.7610308578005 12.399999999906868,145.39283201273065 21.427571115782484,135.0518340865965 41.089715535985306,151.9966572606354 55.5999999998603,163.31004357454367 55.5999999998603,164.02672256610822" stroke="#4dd2ff" stroke-linecap="round" stroke-linejoin="round" stroke-width="0.5"><title>2022-02-17 2.0km</title></polyline><polyline fill="none" points="103.54485776810907,164.82018773118034 102.126914660912,163.43802175688324 100.75623632385395,163.7963613437605 96.07702407008037,160.57129850587808 93.71378555800766,157.90933076431975 89.31816192576662,155.65688867110293 78.39999999990687,146.23750740045216 78.91991247260012,144.54814853635617 87.14398249448277,135.17981226881966 102.74135667388327,147.92686221608892 103.21400437643752,149.30905859963968 108.60218818369322,152.94371023139684 121.60000000009313,163.7451699853409" stroke="#4dd2ff" stroke-linecap="round" stroke-linejoin="round" stroke-width="0.5"><title>2022-02-15 2.0km</title></polyline><polyline fill="none" points="167.70589543925598,160.2272529337788 167.41757508320734,161.1640724533354 166.26429365947843,160.9558904436999 159.3446051166393,154.81449395872187 156.55750834243372,153.77357408514945 155.35617352603003,151.8999145036214 146.7065628473647,145.08183413173538 144.39999999990687,142.21926197217545 152.85739710764028,131.96595514583169 172.7515016682446,149.19350868352922 187.5999999998603,160.79975389671745 186.78309232462198,162.93361709424062 183.1310344825033,166.88905402622186 181.01668520574458,168.03404485416831" stroke="#4dd2ff" stroke-linecap="round" stroke-linejoin="round" stroke-width="0.5"><title>2022-02-14 2.1km</title></polyline><polyline fill="none" points="48.690948225790635,219.59999999997672 37.05174286826514,210.0684789775405 30.948257131734863,207.07064414198976 14.057215210283175,192.46568633499555 27.044865090865642,176.39999999996508 49.045802047941834,194.69487713626586 47.55541599611752,199.23011289647548 41.45193025958724,207.91618816019036 53.942784789716825,218.13953057164326 53.80084326118231,219.292532919324" stroke="#4dd2ff" stroke-linecap="round" stroke-linejoin="round" stroke-width="0.5"><title>2022-02-13 1.8km</title></polyline><polyline fill="none" points="111.57013124902733,217.60070303973043 110.4493777945172,218.52894856245257 110.64715781598352,219.59999999997672 109.32862434023991,217.8863171399571 101.28557013883255,216.45824580884073 100.29667003196664,212.17401937319664 95.74772954103537,210.74593974713935 95.61587619315833,209.3892621814739 88.16616205591708,203.81972414045595 86.91355525352992,200.3208956491435 88.82542879343964,197.32188989088172 82.03498139395379,190.4669852401712 93.04473591595888,176.40000000002328 113.28422476747073,193.60882247023983 112.95459139859304,196.75064966181526 106.2959973460529,204.96219605393708 114.20719820028171,213.6020969255478 117.17389852064662,215.03017240407644 117.96501860604621,216.17263129382627 117.0420451730024,218.52894856245257 117.83316525863484,218.38614161597798 117.56945856311359,217.45789595827227" stroke="#4dd2ff" stroke-linecap="round" stroke-linejoin="round" stroke-width="0.5"><title>2022-02-12 2.0km</title></polyline><polyline fill="none" points="182.44589198101312,219.59999999997672 178.91435307147913,216.97505155851832 177.04471482499503,218.25002734881127 169.56616183998995,213.00011693441775 166.93481912300922,209.5501612764201 161.46439610631205,207.0001866449602 160.70269163581543,204.9752023059409 157.5173820310738,203.40021174197318 144.49916016845964,191.85020755440928 154.60905587044545,177.97503173875157 156.89416928216815,176.39999999996508 173.79015935957432,189.60019170719897 187.50083983154036,201.82521877641557 182.86136714671738,197.62522579327924 179.60681168083102,196.2752244216972 171.08957078121603,205.8751958356006 170.81258733780123,207.45018262555823 176.62923965905793,211.2751405457966 176.00602691038512,213.225113642402 178.70661548851058,216.3750624069362" stroke="#4dd2ff" stroke-linecap="round" stroke-linejoin="round" stroke-width="0.5"><title>2022-02-12 2.2km</title></polyline><polyline fill="none" points="31.5519999996759,254.9941781660891 27.61599999968894,250.88712910172762 23.151999999769032,248.75561333924998 12.399999999906868,238.56584055215353 16.7679999996908,232.1711641762522 20.94399999966845,227.85602507618023 55.5999999998603,256.50182317732833 53.967999999877065,260.03697834099876 49.50399999972433,264.14397492381977 42.975999999791384,259.51710367621854 42.639999999664724,258.6333158799098 40.71999999973923,260.0889657866792 38.70399999967776,258.6853034274536" stroke="#4dd2ff" stroke-linecap="round" stroke-linejoin="round" stroke-width="0.5"><title>2022-02-10 2.3km</title></polyline><polyline fill="none" points="103.66792452801019,257.60665918007726 102.70899001089856,256.3603397110128 100.88701442815363,256.8796397536644 96.14028856810182,253.91962445992976 78.5438401773572,238.65198259835597 78.39999999990687,237.66528704750817 80.9411764703691,234.39360258483794 86.74273029947653,228.05791709735058 121.5999999998603,256.77577977534384 119.49034406174906,260.20315109862713 115.46281908988021,263.9420829026494 108.17491675890051,258.95683615404414 106.64062153128907,260.15122135268757 104.4350721416995,258.2817479856312 104.00355160911568,258.95683615404414 104.9624861262273,257.60665918007726" stroke="#4dd2ff" stroke-linecap="round" stroke-linejoin="round" stroke-width="0.5"><title>2022-02-09 2.5km</title></polyline><polyline fill="none" points="156.46140155708417,251.56917765038088 157.13414905429818,249.17506646102993 155.98086763056926,247.24936252780026 147.47541712992825,240.06696168350754 145.26496106758714,239.49444837420015 144.39999999990687,237.4646247740602 144.92858731886372,235.95526503713336 150.69499443797395,228.72070354560856 153.0015572856646,226.89903986192076 171.9345939932391,243.18975350289838 187.5999999998603,255.5246481829672 187.1194660733454,257.2941937232972 179.86340378178284,265.10096013813745 173.1359288096428,261.6139483125298 171.74238042254,260.20872979675187 172.03070077858865,258.7514632411767 170.396885428112,257.6585113804904" stroke="#4dd2ff" stroke-linecap="round" stroke-linejoin="round" stroke-width="0.5"><title>2022-02-08 2.2km</title></polyline></svg>