<?xml version="1.0" encoding="utf-8" ?>
<svg baseProfile="full" height="300mm" version="1.1" viewBox="0,0,200,300" width="200mm" xmlns="http://www.w3.org/2000/svg" xmlns:ev="http://www.w3.org/2001/xml-events" xmlns:xlink="http://www.w3.org/1999/xlink"><defs /><rect fill="#222222" height="300" width="200" x="0" y="0" /><text fill="#FFFFFF" style="font-size:12px; font-family:Arial; font-weight:bold;" x="10" y="20">Over 10km Runs</text><text fill="#FFFFFF" style="font-size:4px; font-family:Arial" x="10" y="280">ATHLETE</text><text fill="#FFFFFF" style="font-size:9px; font-family:Arial" x="10" y="290">leslie</text><text fill="#FFFFFF" style="font-size:4px; font-family:Arial" x="120" y="280">STATISTICS</text><text fill="#FFFFFF" style="font-size:3px; font-family:Arial" x="120" y="285">Number: 11</text><text fill="#FFFFFF" style="font-size:3px; font-family:Arial" x="120" y="290">Weekly: 3.7</text><text fill="#FFFFFF" style="font-size:3px; font-family:Arial" x="141" y="285">Total: 23.4 km</text><text fill="#FFFFFF" style="font-size:3px; font-family:Arial" x="141" y="290">Avg: 2.1 km</text><text fill="#FFFFFF" style="font-size:3px; font-family:Arial" x="167" y="285">Min: 1.8 km</text><text fill="#FFFFFF" style="font-size:3px; font-family:Arial" x="167" y="290">Max: 2.5 km</text><polyline fill="none" points="45.74342105258256,78.82238192332443 45.447368420893326,77.15501578181284 42.90131578920409,76.4495906974189 41.302631579106674,77.21914530708455 34.31578947347589,72.47354786703363 32.953947368310764,70.29312968347222 26.55921052629128,66.63771065219771 13.0,54.58113362110453 23.77631578943692,41.17761807667557 67.0,77.0267567174742" stroke="#4dd2ff" stroke-linecap="round" stroke-linejoin="round" stroke-width="0.5"><title>2022-02-23 2.0km</title></polyline><polyline fill="none" points="104.63278688536957,73.6151855707285 102.15409836079925,72.78423489176203 101.26885245903395,73.6151855707285 92.82950819679536,66.39228036929853 85.1573770493269,61.79004437522963 73.0,51.179241924081 84.2721311475616,37.81967621308286 127.0,73.55126631562598 119.62295081978664,82.18032378691714 116.08196721319109,79.24006185180042" stroke="#4dd2ff" stroke-linecap="round" stroke-linejoin="round" stroke-width="0.5"><title>2022-02-18 2.2km</title></polyline><polyline fill="none" points="164.01750547043048,78.68520739168162 164.31291028438136,77.14946814504219 162.95404813997447,76.50957600254333 161.24070021882653,77.14946814504219 159.46827133465558,76.18962975702016 153.3829321663361,71.32643252494745 152.55579868680798,69.66270099527901 145.9387308533769,65.95128857227974 133.0,54.24104001588421 144.2844638947863,41.31479260826018 168.86214442015626,62.495821575808804 187.0,76.63755446817959 187.0,77.53340320760617" stroke="#4dd2ff" stroke-linecap="round" stroke-linejoin="round" stroke-width="0.5"><title>2022-02-17 2.0km</title></polyline><polyline fill="none" points="44.43107220996171,138.52523466397543 42.65864332602359,136.7975271961186 40.94529540487565,137.2454516797443 35.096280087251216,133.2141231324058 32.14223194727674,129.88666345539968 26.647702406859025,127.07111083890777 13.0,115.2968842505361 13.649890590691939,113.18518567044521 23.929978118045256,101.47476533602457 43.426695842295885,117.40857777011115 44.01750547019765,119.1363232495496 50.75273522967473,123.6796377892606 67.0,137.18146248167614" stroke="#4dd2ff" stroke-linecap="round" stroke-linejoin="round" stroke-width="0.5"><title>2022-02-15 2.0km</title></polyline><polyline fill="none" points="102.1323692991864,132.7840661671944 101.77196885435842,133.9550905667129 100.33036707458086,133.69486305455212 91.68075639614835,126.01811744837323 88.1968854283914,124.71696760645136 86.69521690765396,122.374893129454 75.88320355955511,113.85229266464012 73.0,110.27407746523386 83.57174638472497,97.45744393230416 108.43937708553858,118.99188585439697 127.0,133.49969237088226 125.9788654060103,136.16702136775712 121.41379310353659,141.1113175327191 118.77085650735535,142.54255606769584" stroke="#4dd2ff" stroke-linecap="round" stroke-linejoin="round" stroke-width="0.5"><title>2022-02-14 2.1km</title></polyline><polyline fill="none" points="178.36368528287858,147.0 163.81467858562246,135.08559872186743 156.18532141530886,131.3383051775163 135.0715190130286,113.08210791880265 151.3060813639313,93.0 178.80725256027654,115.86859642027412 176.94426999567077,121.5376411206089 169.3149128248915,132.39523520029616 184.92848098743707,145.17441321455408 184.75105407694355,146.6156661491841" stroke="#4dd2ff" stroke-linecap="round" stroke-linejoin="round" stroke-width="0.5"><title>2022-02-13 1.8km</title></polyline><polyline fill="none" points="54.46266406076029,204.5008787997067 53.06172224320471,205.66118570312392 53.308947269804776,207.0 51.660780425183475,204.85789642494638 41.60696267336607,203.07280726113822 40.37083753943443,197.71752421651036 34.68466192577034,195.93242468393873 34.51984524121508,194.23657772690058 25.207702569663525,187.27465517562814 23.641944066621363,182.90111956151668 26.031785991508514,179.1523623636458 17.54372674226761,170.58373155025765 31.30591989448294,153.0 56.60528095904738,174.51102808793075 56.19323924789205,178.43831207731273 47.86999668227509,188.70274506742135 57.75899775000289,199.50262115697842 61.46737315040082,201.2877155051101 62.45627325726673,202.7157891173847 61.302556465845555,205.66118570312392 62.29145657271147,205.48267702001613 61.96182320360094,204.3223699479131" stroke="#4dd2ff" stroke-linecap="round" stroke-linejoin="round" stroke-width="0.5"><title>2022-02-12 2.0km</title></polyline><polyline fill="none" points="120.55736497603357,207.0 116.14294133940712,203.71881444810424 113.80589353106916,205.31253418605775 104.45770230004564,198.7501461680513 101.16852390393615,194.43770159548149 94.33049513306469,191.25023330620024 93.37836454482749,188.71900288236793 89.39672753866762,186.75026467745192 73.12395021039993,172.3127594430698 85.7613198379986,154.96878967341036 88.61771160271019,153.0 109.7376991994679,169.50023963395506 126.87604978960007,184.781523470534 121.07670893333852,179.5315322416136 117.0085146012716,177.84403052704874 106.36196347652003,189.84399479452986 106.01573417242616,191.81272828194778 113.2865495737642,196.59392568224575 112.50753363827243,199.0313920530025 115.88326936075464,202.9688280086266" stroke="#4dd2ff" stroke-linecap="round" stroke-linejoin="round" stroke-width="0.5"><title>2022-02-12 2.2km</title></polyline><polyline fill="none" points="156.93999999994412,191.24272270756774 152.02000000001863,186.10891137714498 146.43999999994412,183.44451667409157 133.0,170.70730069017736 138.45999999972992,162.7139552203007 143.6799999999348,157.32003134518163 187.0,193.12727897166042 184.96000000019558,197.5462229262921 179.38000000012107,202.67996865476016 171.21999999997206,196.89637959527317 170.80000000004657,195.7916448499309 168.39999999990687,197.61120723333443 165.87999999988824,195.85662928433158" stroke="#4dd2ff" stroke-linecap="round" stroke-linejoin="round" stroke-width="0.5"><title>2022-02-10 2.3km</title></polyline><polyline fill="none" points="44.58490566024557,254.50832397514023 43.386237513739616,252.95042463875143 41.10876803519204,253.59954969206592 35.17536071012728,249.8995305749122 13.179800221929327,230.81497824791586 13.0,229.5816088093561 16.176470587961376,225.49200323101832 23.428412874462083,217.57239637168823 67.0,253.4697247191798 64.36293007736094,257.75393887329847 59.328523862408474,262.4276036283118 50.21864594868384,256.1960451925406 48.300776914227754,257.6890266909031 45.543840177124366,255.35218498203903 45.00443951156922,256.1960451925406 46.20310765807517,254.50832397514023" stroke="#4dd2ff" stroke-linecap="round" stroke-linejoin="round" stroke-width="0.5"><title>2022-02-09 2.5km</title></polyline><polyline fill="none" points="88.07675194647163,246.9614720629179 88.91768631804734,243.96883307624375 87.47608453826979,241.56170315970667 76.8442714123521,232.58370210434077 74.08120133448392,231.86806046764832 73.0,229.33078096748795 73.66073414869606,227.4440812963294 80.86874304758385,218.40087943192339 83.75194660737179,216.1237998273573 107.41824249154888,236.48719187855022 127.0,251.90581022860715 126.39933259179816,254.11774215404876 117.32925472734496,263.8762001726427 108.91991101228632,259.5174353905604 107.17797552840784,257.7609122458962 107.53837597346865,255.93932905141264 105.49610678548925,254.57313922554022" stroke="#4dd2ff" stroke-linecap="round" stroke-linejoin="round" stroke-width="0.5"><title>2022-02-08 2.2km</title></polyline></svg>