<?xml version="1.0" encoding="utf-8" ?>
<svg baseProfile="full" height="300mm" version="1.1" viewBox="0,0,200,300" width="200mm" xmlns="http://www.w3.org/2000/svg" xmlns:ev="http://www.w3.org/2001/xml-events" xmlns:xlink="http://www.w3.org/1999/xlink"><defs /><rect fill="#222222" height="300" width="200" x="0" y="0" /><text fill="#FFFFFF" style="font-size:12px; font-family:Arial; font-weight:bold;" x="10" y="20">Over 10km Runs</text><text fill="#FFFFFF" style="font-size:4px; font-family:Arial" x="10" y="280">ATHLETE</text><text fill="#FFFFFF" style="font-size:9px; font-family:Arial" x="10" y="290">leslie</text><text fill="#FFFFFF" style="font-size:4px; font-family:Arial" x="120" y="280">STATISTICS</text><text fill="#FFFFFF" style="font-size:3px; font-family:Arial" x="120" y="285">Number: 10</text><text fill="#FFFFFF" style="font-size:3px; font-family:Arial" x="120" y="290">Weekly: 5.0</text><text fill="#FFFFFF" style="font-size:3px; font-family:Arial" x="141" y="285">Total: 21.4 km</text><text fill="#FFFFFF" style="font-size:3px; font-family:Arial" x="141" y="290">Avg: 2.1 km</text><text fill="#FFFFFF" style="font-size:3px; font-family:Arial" x="167" y="285">Min: 1.8 km</text><text fill="#FFFFFF" style="font-size:3px; font-family:Arial" x="167" y="290">Max: 2.5 km</text><polyline fill="none" points="44.63278688536957,73.6151855707285 42.15409836079925,72.78423489176203 41.26885245903395,73.6151855707285 32.82950819679536,66.39228036929853 25.157377049326897,61.79004437522963 13.0,51.179241924081 24.272131147561595,37.81967621308286 67.0,73.55126631562598 59.62295081978664,82.18032378691714 56.08196721319109,79.24006185180042" stroke="#4dd2ff" stroke-linecap="round" stroke-linejoin="round" stroke-width="0.5"><title>2022-02-18 2.2km</title></polyline><polyline fill="none" points="104.01750547043048,78.68520739168162 104.31291028438136,77.14946814504219 102.95404813997447,76.50957600254333 101.24070021882653,77.14946814504219 99.46827133465558,76.18962975702016 93.3829321663361,71.32643252494745 92.55579868680798,69.66270099527901 85.93873085337691,65.95128857227974 73.0,54.24104001588421 84.28446389478631,41.31479260826018 108.86214442015626,62.495821575808804 127.0,76.63755446817959 127.0,77.53340320760617" stroke="#4dd2ff" stroke-linecap="round" stroke-linejoin="round" stroke-width="0.5"><title>2022-02-17 2.0km</title></polyline><polyline fill="none" points="164.4310722099617,78.52523466397543 162.6586433260236,76.79752719611861 160.94529540487565,77.24545167974429 155.09628008725122,73.2141231324058 152.14223194727674,69.88666345539968 146.64770240685903,67.07111083890777 133.0,55.296884250536095 133.64989059069194,53.18518567044521 143.92997811804526,41.474765336024575 163.42669584229589,57.40857777011115 164.01750547019765,59.136323249549605 170.75273522967473,63.679637789260596 187.0,77.18146248167614" stroke="#4dd2ff" stroke-linecap="round" stroke-linejoin="round" stroke-width="0.5"><title>2022-02-15 2.0km</title></polyline><polyline fill="none" points="42.132369299186394,132.7840661671944 41.77196885435842,133.9550905667129 40.33036707458086,133.69486305455212 31.680756396148354,126.01811744837323 28.196885428391397,124.71696760645136 26.695216907653958,122.374893129454 15.883203559555113,113.85229266464012 13.0,110.27407746523386 23.571746384724975,97.45744393230416 48.43937708553858,118.99188585439697 67.0,133.49969237088226 65.9788654060103,136.16702136775712 61.41379310353659,141.1113175327191 58.77085650735535,142.54255606769584" stroke="#4dd2ff" stroke-linecap="round" stroke-linejoin="round" stroke-width="0.5"><title>2022-02-14 2.1km</title></polyline><polyline fill="none" points="118.36368528287858,147.0 103.81467858562246,135.08559872186743 96.18532141530886,131.3383051775163 75.07151901302859,113.08210791880265 91.3060813639313,93.0 118.80725256027654,115.86859642027412 116.94426999567077,121.5376411206089 109.31491282489151,132.39523520029616 124.92848098743707,145.17441321455408 124.75105407694355,146.6156661491841" stroke="#4dd2ff" stroke-linecap="round" stroke-linejoin="round" stroke-width="0.5"><title>2022-02-13 1.8km</title></polyline><polyline fill="none" points="174.4626640607603,144.5008787997067 173.0617222432047,145.66118570312392 173.30894726980478,147.0 171.66078042518348,144.85789642494638 161.60696267336607,143.07280726113822 160.37083753943443,137.71752421651036 154.68466192577034,135.93242468393873 154.51984524121508,134.23657772690058 145.20770256966352,127.27465517562814 143.64194406662136,122.90111956151668 146.0317859915085,119.1523623636458 137.5437267422676,110.58373155025765 151.30591989448294,93.0 176.60528095904738,114.51102808793075 176.19323924789205,118.43831207731273 167.8699966822751,128.70274506742135 177.7589977500029,139.50262115697842 181.46737315040082,141.2877155051101 182.45627325726673,142.7157891173847 181.30255646584556,145.66118570312392 182.29145657271147,145.48267702001613 181.96182320360094,144.3223699479131" stroke="#4dd2ff" stroke-linecap="round" stroke-linejoin="round" stroke-width="0.5"><title>2022-02-12 2.0km</title></polyline><polyline fill="none" points="60.55736497603357,207.0 56.142941339407116,203.71881444810424 53.80589353106916,205.31253418605775 44.45770230004564,198.7501461680513 41.16852390393615,194.43770159548149 34.33049513306469,191.25023330620024 33.37836454482749,188.71900288236793 29.39672753866762,186.75026467745192 13.123950210399926,172.3127594430698 25.7613198379986,154.96878967341036 28.617711602710187,153.0 49.7376991994679,169.50023963395506 66.87604978960007,184.781523470534 61.07670893333852,179.5315322416136 57.0085146012716,177.84403052704874 46.36196347652003,189.84399479452986 46.015734172426164,191.81272828194778 53.286549573764205,196.59392568224575 52.507533638272434,199.0313920530025 55.88326936075464,202.9688280086266" stroke="#4dd2ff" stroke-linecap="round" stroke-linejoin="round" stroke-width="0.5"><title>2022-02-12 2.2km</title></polyline><polyline fill="none" points="96.93999999994412,191.24272270756774 92.02000000001863,186.10891137714498 86.43999999994412,183.44451667409157 73.0,170.70730069017736 78.45999999972992,162.7139552203007 83.67999999993481,157.32003134518163 127.0,193.12727897166042 124.96000000019558,197.5462229262921 119.38000000012107,202.67996865476016 111.21999999997206,196.89637959527317 110.80000000004657,195.7916448499309 108.39999999990687,197.61120723333443 105.87999999988824,195.85662928433158" stroke="#4dd2ff" stroke-linecap="round" stroke-linejoin="round" stroke-width="0.5"><title>2022-02-10 2.3km</title></polyline><polyline fill="none" points="164.58490566024557,194.50832397514023 163.38623751373962,192.95042463875143 161.10876803519204,193.59954969206592 155.17536071012728,189.8995305749122 133.17980022192933,170.81497824791586 133.0,169.5816088093561 136.17647058796138,165.49200323101832 143.42841287446208,157.57239637168823 187.0,193.4697247191798 184.36293007736094,197.75393887329847 179.32852386240847,202.42760362831177 170.21864594868384,196.19604519254062 168.30077691422775,197.68902669090312 165.54384017712437,195.35218498203903 165.00443951156922,196.19604519254062 166.20310765807517,194.50832397514023" stroke="#4dd2ff" stroke-linecap="round" stroke-linejoin="round" stroke-width="0.5"><title>2022-02-09 2.5km</title></polyline><polyline fill="none" points="28.07675194647163,246.9614720629179 28.917686318047345,243.96883307624375 27.476084538269788,241.56170315970667 16.8442714123521,232.58370210434077 14.081201334483922,231.86806046764832 13.0,229.33078096748795 13.660734148696065,227.4440812963294 20.86874304758385,218.40087943192339 23.751946607371792,216.1237998273573 47.41824249154888,236.48719187855022 67.0,251.90581022860715 66.39933259179816,254.11774215404876 57.32925472734496,263.8762001726427 48.91991101228632,259.5174353905604 47.17797552840784,257.7609122458962 47.538375973468646,255.93932905141264 45.496106785489246,254.57313922554022" stroke="#4dd2ff" stroke-linecap="round" stroke-linejoin="round" stroke-width="0.5"><title>2022-02-08 2.2km</title></polyline></svg>