<?xml version="1.0" encoding="utf-8" ?>
<svg baseProfile="full" height="300mm" version="1.1" viewBox="0,0,200,300" width="200mm" xmlns="http://www.w3.org/2000/svg" xmlns:ev="http://www.w3.org/2001/xml-events" xmlns:xlink="http://www.w3.org/1999/xlink"><defs /><rect fill="#222222" height="300" width="200" x="0" y="0" /><text fill="#FFFFFF" style="font-size:12px; font-family:Arial; font-weight:bold;" x="10" y="20">Over 10km Runs</text><text fill="#FFFFFF" style="font-size:4px; font-family:Arial" x="10" y="280">ATHLETE</text><text fill="#FFFFFF" style="font-size:9px; font-family:Arial" x="10" y="290">leslie</text><text fill="#FFFFFF" style="font-size:4px; font-family:Arial" x="120" y="280">STATISTICS</text><text fill="#FFFFFF" style="font-size:3px; font-family:Arial" x="120" y="285">Number: 16</text><text fill="#FFFFFF" style="font-size:3px; font-family:Arial" x="120" y="290">Weekly: 4.0</text><text fill="#FFFFFF" style="font-size:3px; font-family:Arial" x="141" y="285">Total: 33.9 km</text><text fill="#FFFFFF" style="font-size:3px; font-family:Arial" x="141" y="290">Avg: 2.1 km</text><text fill="#FFFFFF" style="font-size:3px; font-family:Arial" x="167" y="285">Min: 1.8 km</text><text fill="#FFFFFF" style="font-size:3px; font-family:Arial" x="167" y="290">Max: 2.5 km</text><polyline fill="none" points="38.97448979597539,67.71861129591707 34.15306122461334,62.645834793220274 30.75510204094462,64.8838290576823 32.040816326625645,63.24263397883624 29.056122448993847,61.3527681074338 27.311224489705637,59.11476230568951 20.65306122461334,55.1360672689043 12.25,47.52674864057917 20.974489795742556,37.28138870402472 39.15816326532513,53.096977104840335 52.75,63.64049981354037" stroke="#4dd2ff" stroke-linecap="round" stroke-linejoin="round" stroke-width="0.5"><title>2022-03-05 2.1km</title></polyline><polyline fill="none" points="75.12677984661423,59.34661815688014 73.52984665939584,59.250528716889676 72.06599123752676,57.47287156182574 65.63389923330396,53.533181927516125 57.25,45.653732284205034 65.72261774353683,35.80428826669231 97.75,62.56560632993933 97.30640744790435,63.81476170220412 93.22535596950911,68.42700726480689 91.93893756857142,69.19571173330769 90.82995618856512,68.37896320596337" stroke="#4dd2ff" stroke-linecap="round" stroke-linejoin="round" stroke-width="0.5"><title>2022-03-03 2.0km</title></polyline><polyline fill="none" points="125.00081967213191,62.97505931020714 125.31065573752858,62.63948319625342 123.98278688522987,62.44772534025833 123.2745901637245,62.97505931020714 116.90081967227161,57.222302328562364 111.98770491802134,54.4417851526523 102.25,45.66869729972677 110.17295081960037,36.03254841960734 111.05819672136568,35.8407828353229 120.5303278688807,44.614001292327885 123.80573770496994,46.675451007671654 142.75,62.73536210338352 137.83688524598256,68.39219298021635 136.7745901637245,69.1592171646771 136.06639344268478,68.77570518385619" stroke="#4dd2ff" stroke-linecap="round" stroke-linejoin="round" stroke-width="0.5"><title>2022-02-27 2.2km</title></polyline><polyline fill="none" points="171.9926229508128,66.3547739526839 171.32868852466345,66.93004584993469 171.77131147542968,66.40271329664392 166.37131147552282,63.71810467727482 161.8565573769156,59.40353224199498 156.10245901648887,56.239494536595885 147.25,48.28139327606186 147.38278688536957,47.370520145923365 155.4827868854627,38.069954150065314 169.7795081967488,49.863433093822096 173.63032786897384,53.93836668127915 176.10901639354415,55.18481193180196 187.75,64.86865256493911" stroke="#4dd2ff" stroke-linecap="round" stroke-linejoin="round" stroke-width="0.5"><title>2022-02-26 2.0km</title></polyline><polyline fill="none" points="37.39098360668868,130.77950172830606 35.753278688527644,130.63568357127951 34.7352459016256,129.77277397108264 33.495901639340445,130.20422891213093 26.90081967203878,124.35559349675896 20.217213114723563,120.3286340777995 12.338524590013549,113.32933664048323 12.25,112.46640442078933 20.350000000093132,102.97407555620885 52.39590163924731,129.38925823144382 52.75,130.20422891213093 51.112295081838965,132.02592444379115" stroke="#4dd2ff" stroke-linecap="round" stroke-linejoin="round" stroke-width="0.5"><title>2022-02-24 2.1km</title></polyline><polyline fill="none" points="81.80756578943692,131.61678644246422 81.5855263157282,130.36626183637418 79.67598684201948,129.83719302306417 78.4769736842718,130.4143589803134 73.23684210516512,126.85516090027522 72.21546052605845,125.21984726260416 67.41940789460205,122.47828298917739 57.25,113.43585021584295 65.33223684201948,103.38321355753578 97.75,130.27006753807655" stroke="#4dd2ff" stroke-linecap="round" stroke-linejoin="round" stroke-width="0.5"><title>2022-02-23 2.0km</title></polyline><polyline fill="none" points="125.97459016391076,127.71138917800272 124.11557377059944,127.08817616879242 123.45163934421726,127.71138917800272 117.1221311474219,122.2942102769739 111.36803278699517,118.84253328142222 102.25,110.88443144300254 110.70409836061299,100.86475715978304 142.75,127.66344973671949 137.21721311472356,134.13524284015875 134.56147540989332,131.9300463888212" stroke="#4dd2ff" stroke-linecap="round" stroke-linejoin="round" stroke-width="0.5"><title>2022-02-18 2.2km</title></polyline><polyline fill="none" points="170.51312910276465,131.51390554377576 170.7346827131696,130.3621011088253 169.71553610474803,129.88218200195115 168.4305251641199,130.3621011088253 167.10120350075886,129.64222231780877 162.53719912469387,125.9948243937688 161.91684901504777,124.74702574650291 156.95404813997447,121.96346642926801 147.25,113.18078001198592 155.7133479209151,103.48609445622424 174.14660831494257,119.37186618190026 187.75,129.97816585120745 187.75,130.6500524057774" stroke="#4dd2ff" stroke-linecap="round" stroke-linejoin="round" stroke-width="0.5"><title>2022-02-17 2.0km</title></polyline><polyline fill="none" points="35.823304157471284,196.39392599795246 34.49398249480873,195.09814539703075 33.208971553714946,195.43408875976456 28.822210065787658,192.41059234924614 26.60667396057397,189.91499759152066 22.485776805318892,187.80333312915172 12.25,178.97266318788752 12.737417943077162,177.38888925279025 20.447483588708565,168.60607400198933 35.070021881954744,180.55643332755426 35.51312910299748,181.8522424371331 40.56455142237246,185.25972834188724 52.75,195.38609686121345" stroke="#4dd2ff" stroke-linecap="round" stroke-linejoin="round" stroke-width="0.5"><title>2022-02-15 2.0km</title></polyline><polyline fill="none" points="79.09927697456442,192.0880496253958 78.82897664071061,192.96631792502012 77.74777530599385,192.7711472909432 71.26056729699485,187.01358808629448 68.64766407129355,186.03772570483852 67.52141268085688,184.2811698471196 59.412402669666335,177.88921949849464 57.25,175.20555809891084 65.17880978854373,165.59308294922812 83.82953281421214,181.74391439079773 97.75,192.6247692781617 96.98414905462414,194.6252660258324 93.56034482759424,198.33348814956844 91.57814238057472,199.40691705077188" stroke="#4dd2ff" stroke-linecap="round" stroke-linejoin="round" stroke-width="0.5"><title>2022-02-14 2.1km</title></polyline><polyline fill="none" points="136.2727639619261,202.75 125.36100893933326,193.81419904140057 119.63899106136523,191.00372888310812 103.80363925965503,177.311580939102 115.97956102294847,162.25 136.605439420091,179.4014473152347 135.20820249640383,183.65323084039846 129.4861846184358,191.796426400193 141.1963607405778,201.38080991094466 141.0632905573584,202.46174961182987" stroke="#4dd2ff" stroke-linecap="round" stroke-linejoin="round" stroke-width="0.5"><title>2022-02-13 1.8km</title></polyline><polyline fill="none" points="178.34699804591946,200.87565909972182 177.29629168263637,201.74588927725563 177.4817104525864,202.75 176.24558531912044,201.14342231868068 168.70522200525738,199.80460544576636 167.7781281550415,195.78814316232456 163.51349644479342,194.44931851292495 163.38988393126056,193.17743329511723 156.40577692748047,187.9559913816629 155.23145805043168,184.6758396710502 157.02383949398063,181.86427177267615 150.65779505693354,175.43779866263503 160.97943992121145,162.25 179.95396071951836,178.38327106583165 179.64492943626828,181.32873405795544 173.40249751205556,189.0270588005078 180.8192483128514,197.1269658677047 183.60052986326627,198.46578662877437 184.3422049432993,199.5368418379221 183.4769173497334,201.74588927725563 184.21859242999926,201.612007764983 183.97136740316637,200.74177746084752" stroke="#4dd2ff" stroke-linecap="round" stroke-linejoin="round" stroke-width="0.5"><title>2022-02-12 2.0km</title></polyline><polyline fill="none" points="47.918023732025176,267.75 44.60720600443892,265.2891108361655 42.85442014830187,266.4844006396015 35.843276724917814,261.5626096260967 33.37639292771928,258.3282761966693 28.247871349565685,255.9376749796793 27.533773408504203,254.03925216186326 24.547545654000714,252.56269850814715 12.342962657799944,241.73456958233146 21.820989878382534,228.72659225511597 23.96328370203264,227.25 39.80327439960092,239.6251797255245 52.657037341967225,251.0861426029005 48.30753170000389,247.1486491812393 45.256385950837284,245.88302289537387 37.27147260727361,254.8829960959265 37.01180062908679,256.35954621148994 42.464912180323154,259.9454442617134 41.88065022858791,261.7735440398101 44.412452020449564,264.72662100655725" stroke="#4dd2ff" stroke-linecap="round" stroke-linejoin="round" stroke-width="0.5"><title>2022-02-12 2.2km</title></polyline><polyline fill="none" points="75.20499999984168,255.932042030734 71.51499999989755,252.08168353291694 67.32999999984168,250.08338750561234 57.25,240.53047551767668 61.34499999973923,234.53546641522553 65.25999999977648,230.49002350895898 97.75,257.34545922878897 96.21999999997206,260.65966719476273 92.03499999991618,264.5099764910992 85.91499999980442,260.172284696484 85.5999999998603,259.34373363747727 83.79999999981374,260.70840542501537 81.90999999968335,259.3924719632487" stroke="#4dd2ff" stroke-linecap="round" stroke-linejoin="round" stroke-width="0.5"><title>2022-02-10 2.3km</title></polyline><polyline fill="none" points="125.93867924506776,258.3812429813552 125.0396781351883,257.2128184791072 123.33157602627762,257.6996622690931 118.88152053253725,254.92464793124236 102.3848501665052,240.61123368598055 102.25,239.68620660708984 104.63235294097103,236.6190024233074 110.07130965590477,230.67929727880983 142.75,257.60229353944305 140.77219755807891,260.81545415503206 136.99639289686456,264.3207027212484 130.1639844616875,259.64703389443457 128.72558268578723,260.76677001820644 126.6578801330179,259.0141387365875 126.25332963350229,259.64703389443457 127.15233074338175,258.3812429813552" stroke="#4dd2ff" stroke-linecap="round" stroke-linejoin="round" stroke-width="0.5"><title>2022-02-09 2.5km</title></polyline><polyline fill="none" points="158.55756395985372,252.72110404726118 159.1882647385355,250.47662480722647 158.10706340381876,248.6712773698382 150.13320355932228,241.93777657829924 148.06090100086294,241.40104535076534 147.25,239.49808572564507 147.74555061152205,238.08306097227614 153.1515572858043,231.3006595739862 155.31395995547064,229.59284987056162 173.06368186883628,244.86539390892722 187.75,256.4293576715281 187.29949944396503,258.0883066155948 180.49694104562514,265.4071501294966 174.18993325927295,262.1380765429931 172.8834816464223,260.8206841844367 173.15378198004328,259.4544967885595 171.62208008905873,258.4298544191988" stroke="#4dd2ff" stroke-linecap="round" stroke-linejoin="round" stroke-width="0.5"><title>2022-02-08 2.2km</title></polyline></svg>