<?xml version="1.0" encoding="utf-8" ?>
<svg baseProfile="full" height="300mm" version="1.1" viewBox="0,0,200,300" width="200mm" xmlns="http://www.w3.org/2000/svg" xmlns:ev="http://www.w3.org/2001/xml-events" xmlns:xlink="http://www.w3.org/1999/xlink"><defs /><rect fill="#222222" height="300" width="200" x="0" y="0" /><text fill="#FFFFFF" style="font-size:12px; font-family:Arial; font-weight:bold;" x="10" y="20">Over 10km Runs</text><text fill="#FFFFFF" style="font-size:4px; font-family:Arial" x="10" y="280">ATHLETE</text><text fill="#FFFFFF" style="font-size:9px; font-family:Arial" x="10" y="290">leslie</text><text fill="#FFFFFF" style="font-size:4px; font-family:Arial" x="120" y="280">STATISTICS</text><text fill="#FFFFFF" style="font-size:3px; font-family:Arial" x="120" y="285">Number: 18</text><text fill="#FFFFFF" style="font-size:3px; font-family:Arial" x="120" y="290">Weekly: 3.6</text><text fill="#FFFFFF" style="font-size:3px; font-family:Arial" x="141" y="285">Total: 38.5 km</text><text fill="#FFFFFF" style="font-size:3px; font-family:Arial" x="141" y="290">Avg: 2.1 km</text><text fill="#FFFFFF" style="font-size:3px; font-family:Arial" x="167" y="285">Min: 1.8 km</text><text fill="#FFFFFF" style="font-size:3px; font-family:Arial" x="167" y="290">Max: 2.7 km</text><polyline fill="none" points="33.03642384102568,60.561496938345954 20.87748344358988,53.734829754568636 12.25,45.50400333508151 19.938741721911356,35.96580091310898 20.78807947016321,35.675295144785196 52.75,62.4497116926359 51.94536423846148,64.48316775623243 47.117549668997526,69.3247048552148 40.903973509790376,64.57999884273158 38.221854304429144,66.27454057964496 36.92549668881111,65.83880168705946 30.443708609091118,60.75516023609089 27.403973509790376,57.70495676249266 27.71688741724938,56.93029969034251" stroke="#4dd2ff" stroke-linecap="round" stroke-linejoin="round" stroke-width="0.5"><title>2022-03-22 2.7km</title></polyline><polyline fill="none" points="93.8714347940404,72.75 94.06517958454788,71.3510646612267 91.9985684864223,72.54015982866986 84.50710325501859,63.866726092470344 79.9218098805286,62.607672768994235 74.75528213498183,59.66987528192112 60.1598412534222,46.51962433807785 71.78452868107706,32.25 94.1297611813061,50.64658412308199 92.96729243872687,50.64658412308199 84.83001123927534,60.998880016675685 88.83407024201006,63.726831359788775 90.12570217857137,65.82525021332549 89.86737579130568,67.64387618901674 94.8401587465778,71.91063904034672" stroke="#4dd2ff" stroke-linecap="round" stroke-linejoin="round" stroke-width="0.5"><title>2022-03-06 2.0km</title></polyline><polyline fill="none" points="128.9744897959754,67.71861129591707 124.15306122461334,62.645834793220274 120.75510204094462,64.8838290576823 122.04081632662565,63.24263397883624 119.05612244899385,61.3527681074338 117.31122448970564,59.11476230568951 110.65306122461334,55.1360672689043 102.25,47.52674864057917 110.97448979574256,37.28138870402472 129.15816326532513,53.096977104840335 142.75,63.64049981354037" stroke="#4dd2ff" stroke-linecap="round" stroke-linejoin="round" stroke-width="0.5"><title>2022-03-05 2.1km</title></polyline><polyline fill="none" points="165.12677984661423,59.34661815688014 163.52984665939584,59.250528716889676 162.06599123752676,57.47287156182574 155.63389923330396,53.533181927516125 147.25,45.653732284205034 155.72261774353683,35.80428826669231 187.75,62.56560632993933 187.30640744790435,63.81476170220412 183.2253559695091,68.42700726480689 181.93893756857142,69.19571173330769 180.82995618856512,68.37896320596337" stroke="#4dd2ff" stroke-linecap="round" stroke-linejoin="round" stroke-width="0.5"><title>2022-03-03 2.0km</title></polyline><polyline fill="none" points="35.00081967213191,111.72505931020714 35.31065573752858,111.38948319625342 33.98278688522987,111.19772534025833 33.2745901637245,111.72505931020714 26.90081967227161,105.97230232856236 21.987704918021336,103.1917851526523 12.25,94.41869729972677 20.172950819600374,84.78254841960734 21.058196721365675,84.5907828353229 30.530327868880704,93.36400129232788 33.80573770496994,95.42545100767165 52.75,111.48536210338352 47.83688524598256,117.14219298021635 46.7745901637245,117.9092171646771 46.066393442684785,117.52570518385619" stroke="#4dd2ff" stroke-linecap="round" stroke-linejoin="round" stroke-width="0.5"><title>2022-02-27 2.2km</title></polyline><polyline fill="none" points="81.9926229508128,115.1047739526839 81.32868852466345,115.68004584993469 81.77131147542968,115.15271329664392 76.37131147552282,112.46810467727482 71.85655737691559,108.15353224199498 66.10245901648887,104.98949453659588 57.25,97.03139327606186 57.38278688536957,96.12052014592336 65.4827868854627,86.81995415006531 79.7795081967488,98.6134330938221 83.63032786897384,102.68836668127915 86.10901639354415,103.93481193180196 97.75,113.61865256493911" stroke="#4dd2ff" stroke-linecap="round" stroke-linejoin="round" stroke-width="0.5"><title>2022-02-26 2.0km</title></polyline><polyline fill="none" points="127.39098360668868,114.52950172830606 125.75327868852764,114.38568357127951 124.7352459016256,113.52277397108264 123.49590163934045,113.95422891213093 116.90081967203878,108.10559349675896 110.21721311472356,104.0786340777995 102.33852459001355,97.07933664048323 102.25,96.21640442078933 110.35000000009313,86.72407555620885 142.3959016392473,113.13925823144382 142.75,113.95422891213093 141.11229508183897,115.77592444379115" stroke="#4dd2ff" stroke-linecap="round" stroke-linejoin="round" stroke-width="0.5"><title>2022-02-24 2.1km</title></polyline><polyline fill="none" points="171.80756578943692,115.36678644246422 171.5855263157282,114.11626183637418 169.67598684201948,113.58719302306417 168.4769736842718,114.16435898031341 163.23684210516512,110.60516090027522 162.21546052605845,108.96984726260416 157.41940789460205,106.22828298917739 147.25,97.18585021584295 155.33223684201948,87.13321355753578 187.75,114.02006753807655" stroke="#4dd2ff" stroke-linecap="round" stroke-linejoin="round" stroke-width="0.5"><title>2022-02-23 2.0km</title></polyline><polyline fill="none" points="35.97459016391076,160.21138917800272 34.11557377059944,159.58817616879242 33.451639344217256,160.21138917800272 27.122131147421896,154.7942102769739 21.368032786995173,151.34253328142222 12.25,143.38443144300254 20.70409836061299,133.36475715978304 52.75,160.16344973671949 47.21721311472356,166.63524284015875 44.56147540989332,164.4300463888212" stroke="#4dd2ff" stroke-linecap="round" stroke-linejoin="round" stroke-width="0.5"><title>2022-02-18 2.2km</title></polyline><polyline fill="none" points="80.51312910276465,164.01390554377576 80.7346827131696,162.8621011088253 79.71553610474803,162.38218200195115 78.4305251641199,162.8621011088253 77.10120350075886,162.14222231780877 72.53719912469387,158.4948243937688 71.91684901504777,157.2470257465029 66.95404813997447,154.463466429268 57.25,145.68078001198592 65.71334792091511,135.98609445622424 84.14660831494257,151.87186618190026 97.75,162.47816585120745 97.75,163.1500524057774" stroke="#4dd2ff" stroke-linecap="round" stroke-linejoin="round" stroke-width="0.5"><title>2022-02-17 2.0km</title></polyline><polyline fill="none" points="125.82330415747128,163.89392599795246 124.49398249480873,162.59814539703075 123.20897155371495,162.93408875976456 118.82221006578766,159.91059234924614 116.60667396057397,157.41499759152066 112.48577680531889,155.30333312915172 102.25,146.47266318788752 102.73741794307716,144.88888925279025 110.44748358870856,136.10607400198933 125.07002188195474,148.05643332755426 125.51312910299748,149.3522424371331 130.56455142237246,152.75972834188724 142.75,162.88609686121345" stroke="#4dd2ff" stroke-linecap="round" stroke-linejoin="round" stroke-width="0.5"><title>2022-02-15 2.0km</title></polyline><polyline fill="none" points="169.09927697456442,159.5880496253958 168.8289766407106,160.46631792502012 167.74777530599385,160.2711472909432 161.26056729699485,154.51358808629448 158.64766407129355,153.53772570483852 157.52141268085688,151.7811698471196 149.41240266966633,145.38921949849464 147.25,142.70555809891084 155.17880978854373,133.09308294922812 173.82953281421214,149.24391439079773 187.75,160.1247692781617 186.98414905462414,162.1252660258324 183.56034482759424,165.83348814956844 181.57814238057472,166.90691705077188" stroke="#4dd2ff" stroke-linecap="round" stroke-linejoin="round" stroke-width="0.5"><title>2022-02-14 2.1km</title></polyline><polyline fill="none" points="46.2727639619261,219.0 35.36100893933326,210.06419904140057 29.638991061365232,207.25372888310812 13.803639259655029,193.561580939102 25.979561022948474,178.5 46.60543942009099,195.6514473152347 45.20820249640383,199.90323084039846 39.4861846184358,208.046426400193 51.1963607405778,217.63080991094466 51.063290557358414,218.71174961182987" stroke="#4dd2ff" stroke-linecap="round" stroke-linejoin="round" stroke-width="0.5"><title>2022-02-13 1.8km</title></polyline><polyline fill="none" points="88.34699804591946,217.12565909972182 87.29629168263637,217.99588927725563 87.48171045258641,219.0 86.24558531912044,217.39342231868068 78.70522200525738,216.05460544576636 77.77812815504149,212.03814316232456 73.51349644479342,210.69931851292495 73.38988393126056,209.42743329511723 66.40577692748047,204.2059913816629 65.23145805043168,200.9258396710502 67.02383949398063,198.11427177267615 60.65779505693354,191.68779866263503 70.97943992121145,178.5 89.95396071951836,194.63327106583165 89.64492943626828,197.57873405795544 83.40249751205556,205.2770588005078 90.81924831285141,213.3769658677047 93.60052986326627,214.71578662877437 94.3422049432993,215.7868418379221 93.47691734973341,217.99588927725563 94.21859242999926,217.862007764983 93.97136740316637,216.99177746084752" stroke="#4dd2ff" stroke-linecap="round" stroke-linejoin="round" stroke-width="0.5"><title>2022-02-12 2.0km</title></polyline><polyline fill="none" points="137.91802373202518,219.0 134.60720600443892,216.5391108361655 132.85442014830187,217.73440063960152 125.84327672491781,212.81260962609667 123.37639292771928,209.57827619666932 118.24787134956568,207.1876749796793 117.5337734085042,205.28925216186326 114.54754565400071,203.81269850814715 102.34296265779994,192.98456958233146 111.82098987838253,179.97659225511597 113.96328370203264,178.5 129.80327439960092,190.8751797255245 142.65703734196723,202.3361426029005 138.3075317000039,198.3986491812393 135.25638595083728,197.13302289537387 127.27147260727361,206.1329960959265 127.01180062908679,207.60954621148994 132.46491218032315,211.19544426171342 131.8806502285879,213.02354403981008 134.41245202044956,215.97662100655725" stroke="#4dd2ff" stroke-linecap="round" stroke-linejoin="round" stroke-width="0.5"><title>2022-02-12 2.2km</title></polyline><polyline fill="none" points="165.20499999984168,207.182042030734 161.51499999989755,203.33168353291694 157.32999999984168,201.33338750561234 147.25,191.78047551767668 151.34499999973923,185.78546641522553 155.25999999977648,181.74002350895898 187.75,208.59545922878897 186.21999999997206,211.90966719476273 182.03499999991618,215.75997649109922 175.91499999980442,211.42228469648398 175.5999999998603,210.59373363747727 173.79999999981374,211.95840542501537 171.90999999968335,210.64247196324868" stroke="#4dd2ff" stroke-linecap="round" stroke-linejoin="round" stroke-width="0.5"><title>2022-02-10 2.3km</title></polyline><polyline fill="none" points="35.93867924506776,258.3812429813552 35.039678135188296,257.2128184791072 33.33157602627762,257.6996622690931 28.88152053253725,254.92464793124236 12.384850166505203,240.61123368598055 12.25,239.68620660708984 14.632352940971032,236.6190024233074 20.07130965590477,230.67929727880983 52.75,257.60229353944305 50.772197558078915,260.81545415503206 46.99639289686456,264.3207027212484 40.163984461687505,259.64703389443457 38.72558268578723,260.76677001820644 36.6578801330179,259.0141387365875 36.25332963350229,259.64703389443457 37.152330743381754,258.3812429813552" stroke="#4dd2ff" stroke-linecap="round" stroke-linejoin="round" stroke-width="0.5"><title>2022-02-09 2.5km</title></polyline><polyline fill="none" points="68.55756395985372,252.72110404726118 69.18826473853551,250.47662480722647 68.10706340381876,248.6712773698382 60.13320355932228,241.93777657829924 58.06090100086294,241.40104535076534 57.25,239.49808572564507 57.74555061152205,238.08306097227614 63.1515572858043,231.3006595739862 65.31395995547064,229.59284987056162 83.06368186883628,244.86539390892722 97.75,256.4293576715281 97.29949944396503,258.0883066155948 90.49694104562514,265.4071501294966 84.18993325927295,262.1380765429931 82.8834816464223,260.8206841844367 83.15378198004328,259.4544967885595 81.62208008905873,258.4298544191988" stroke="#4dd2ff" stroke-linecap="round" stroke-linejoin="round" stroke-width="0.5"><title>2022-02-08 2.2km</title></polyline></svg>