<?xml version="1.0" encoding="utf-8" ?>
<svg baseProfile="full" height="300mm" version="1.1" viewBox="0,0,200,300" width="200mm" xmlns="http://www.w3.org/2000/svg" xmlns:ev="http://www.w3.org/2001/xml-events" xmlns:xlink="http://www.w3.org/1999/xlink"><defs /><rect fill="#222222" height="300" width="200" x="0" y="0" /><text fill="#FFFFFF" style="font-size:12px; font-family:Arial; font-weight:bold;" x="10" y="20">Over 10km Runs</text><text fill="#FFFFFF" style="font-size:4px; font-family:Arial" x="10" y="280">ATHLETE</text><text fill="#FFFFFF" style="font-size:9px; font-family:Arial" x="10" y="290">leslie</text><text fill="#FFFFFF" style="font-size:4px; font-family:Arial" x="120" y="280">STATISTICS</text><text fill="#FFFFFF" style="font-size:3px; font-family:Arial" x="120" y="285">Number: 5</text><text fill="#FFFFFF" style="font-size:3px; font-family:Arial" x="120" y="290">Weekly: 5.0</text><text fill="#FFFFFF" style="font-size:3px; font-family:Arial" x="141" y="285">Total: 11.2 km</text><text fill="#FFFFFF" style="font-size:3px; font-family:Arial" x="141" y="290">Avg: 2.2 km</text><text fill="#FFFFFF" style="font-size:3px; font-family:Arial" x="167" y="285">Min: 2.0 km</text><text fill="#FFFFFF" style="font-size:3px; font-family:Arial" x="167" y="290">Max: 2.5 km</text><polyline fill="none" points="69.28355208178982,102.66783839953132 67.41562965791672,104.21491427079309 67.74526302702725,106.0 65.54770723404363,103.14386189985089 52.14261689828709,100.76374301477335 50.494450053200126,93.62336562201381 42.91288256831467,91.2432329118019 42.693126989062876,88.98210363578983 30.276936760172248,79.69954023417085 28.189258756116033,73.86815941520035 31.375714655965567,68.86981648474466 20.05830232333392,57.44497540022712 38.40789319342002,34.0 72.14037461252883,62.681370783713646 71.59098566463217,67.91774943633936 60.49332891078666,81.60366008989513 73.6786636672914,96.00349487585481 78.62316420162097,98.38362067344133 79.94169767713174,100.28771882306319 78.40340862190351,104.21491427079309 79.72194209787995,103.97690269327722 79.2824309389107,102.42982659710106" stroke="#4dd2ff" stroke-linecap="round" stroke-linejoin="round" stroke-width="0.5"><title>2022-02-12 2.0km</title></polyline><polyline fill="none" points="177.40981996804476,106.0 171.52392178587615,101.62508593080565 168.40785804158077,103.75004558137152 155.94360306672752,95.00019489077386 151.5580318714492,89.25026879401412 142.44066017726436,85.00031107489485 141.17115272628143,81.62533717649058 135.86230338504538,79.00035290338565 114.16526694735512,59.75034592405427 131.01509311748669,36.625052897958085 134.82361547043547,34.0 162.98359893262386,56.00031951197889 185.83473305264488,76.37536462733988 178.10227857809514,69.37537632207386 172.6780194682069,67.1253740361426 158.48261796869338,83.12532639270648 158.020978896413,85.75030437589157 167.71539943199605,92.12523424299434 166.67671151738614,95.37518940400332 171.17769248085096,100.62510401161853" stroke="#4dd2ff" stroke-linecap="round" stroke-linejoin="round" stroke-width="0.5"><title>2022-02-12 2.2km</title></polyline><polyline fill="none" points="45.91999999945983,164.99029694346245 39.359999999869615,158.14521516952664 31.919999999459833,154.59268889878877 14.0,137.60973425360862 21.279999999329448,126.95194029377308 28.239999999757856,119.76004179357551 86.0,167.50303862884175 83.27999999979511,173.3949639017228 75.83999999985099,180.2399582064245 64.95999999949709,172.5285061270697 64.39999999990687,171.05552646657452 61.1999999997206,173.4816096444847 57.83999999938533,171.14217237906996" stroke="#4dd2ff" stroke-linecap="round" stroke-linejoin="round" stroke-width="0.5"><title>2022-02-10 2.3km</title></polyline><polyline fill="none" points="156.1132075469941,169.34443196689244 154.51498335180804,167.26723285170738 151.47835738025606,168.13273292279337 143.56714761350304,163.19937409996055 114.23973362939432,137.7533043306321 114.0,136.10881174588576 118.23529411759228,130.65600430802442 127.90455049928278,120.0965284955455 186.0,167.959632958984 182.48390677012503,173.6719184977701 175.77136514987797,179.9034715044545 163.624861265067,171.5947269233875 161.06770255230367,173.58536892116535 157.39178690314293,170.46957997605205 156.67258601542562,171.5947269233875 158.27081021061167,169.34443196689244" stroke="#4dd2ff" stroke-linecap="round" stroke-linejoin="round" stroke-width="0.5"><title>2022-02-09 2.5km</title></polyline><polyline fill="none" points="34.10233592847362,239.28196275047958 35.22358175739646,235.29177743499167 33.301446050871164,232.08227087953128 19.125695216469467,220.11160280567128 15.441601779311895,219.15741395682562 14.0,215.77437462331727 14.880978865083307,213.2587750616949 24.491657396778464,201.20117257582024 28.335928809829056,198.16506643639877 59.89098998904228,225.31625583802816 86.0,245.87441363814287 85.19911012239754,248.82365620532073 73.1056729699485,261.8349335634848 61.89321468304843,256.0232471873751 59.5706340377219,253.68121632782277 60.05116796446964,251.25243873510044 57.32814238080755,249.4308523007203" stroke="#4dd2ff" stroke-linecap="round" stroke-linejoin="round" stroke-width="0.5"><title>2022-02-08 2.2km</title></polyline></svg>