<?xml version="1.0" encoding="utf-8" ?>
<svg baseProfile="full" height="300mm" version="1.1" viewBox="0,0,200,300" width="200mm" xmlns="http://www.w3.org/2000/svg" xmlns:ev="http://www.w3.org/2001/xml-events" xmlns:xlink="http://www.w3.org/1999/xlink"><defs /><rect fill="#222222" height="300" width="200" x="0" y="0" /><text fill="#FFFFFF" style="font-size:12px; font-family:Arial; font-weight:bold;" x="10" y="20">Over 10km Runs</text><text fill="#FFFFFF" style="font-size:4px; font-family:Arial" x="10" y="280">ATHLETE</text><text fill="#FFFFFF" style="font-size:9px; font-family:Arial" x="10" y="290">leslie</text><text fill="#FFFFFF" style="font-size:4px; font-family:Arial" x="120" y="280">STATISTICS</text><text fill="#FFFFFF" style="font-size:3px; font-family:Arial" x="120" y="285">Number: 7</text><text fill="#FFFFFF" style="font-size:3px; font-family:Arial" x="120" y="290">Weekly: 3.5</text><text fill="#FFFFFF" style="font-size:3px; font-family:Arial" x="141" y="285">Total: 15.2 km</text><text fill="#FFFFFF" style="font-size:3px; font-family:Arial" x="141" y="290">Avg: 2.2 km</text><text fill="#FFFFFF" style="font-size:3px; font-family:Arial" x="167" y="285">Min: 1.8 km</text><text fill="#FFFFFF" style="font-size:3px; font-family:Arial" x="167" y="290">Max: 2.5 km</text><polyline fill="none" points="42.132369299186394,72.7840661671944 41.77196885435842,73.9550905667129 40.33036707458086,73.69486305455212 31.680756396148354,66.01811744837323 28.196885428391397,64.71696760645136 26.695216907653958,62.374893129453994 15.883203559555113,53.85229266464012 13.0,50.27407746523386 23.571746384724975,37.45744393230416 48.43937708553858,58.99188585439697 67.0,73.49969237088226 65.9788654060103,76.16702136775712 61.41379310353659,81.11131753271911 58.77085650735535,82.54255606769584" stroke="#4dd2ff" stroke-linecap="round" stroke-linejoin="round" stroke-width="0.5"><title>2022-02-14 2.1km</title></polyline><polyline fill="none" points="178.36368528287858,87.0 163.81467858562246,75.08559872186743 156.18532141530886,71.3383051775163 135.0715190130286,53.08210791880265 151.3060813639313,33.0 178.80725256027654,55.868596420274116 176.94426999567077,61.537641120608896 169.3149128248915,72.39523520029616 184.92848098743707,85.17441321455408 184.75105407694355,86.61566614918411" stroke="#4dd2ff" stroke-linecap="round" stroke-linejoin="round" stroke-width="0.5"><title>2022-02-13 1.8km</title></polyline><polyline fill="none" points="54.46266406076029,144.5008787997067 53.06172224320471,145.66118570312392 53.308947269804776,147.0 51.660780425183475,144.85789642494638 41.60696267336607,143.07280726113822 40.37083753943443,137.71752421651036 34.68466192577034,135.93242468393873 34.51984524121508,134.23657772690058 25.207702569663525,127.27465517562814 23.641944066621363,122.90111956151668 26.031785991508514,119.1523623636458 17.54372674226761,110.58373155025765 31.30591989448294,93.0 56.60528095904738,114.51102808793075 56.19323924789205,118.43831207731273 47.86999668227509,128.70274506742135 57.75899775000289,139.50262115697842 61.46737315040082,141.2877155051101 62.45627325726673,142.7157891173847 61.302556465845555,145.66118570312392 62.29145657271147,145.48267702001613 61.96182320360094,144.3223699479131" stroke="#4dd2ff" stroke-linecap="round" stroke-linejoin="round" stroke-width="0.5"><title>2022-02-12 2.0km</title></polyline><polyline fill="none" points="180.55736497603357,147.0 176.14294133940712,143.71881444810424 173.80589353106916,145.31253418605775 164.45770230004564,138.7501461680513 161.16852390393615,134.43770159548149 154.3304951330647,131.25023330620024 153.3783645448275,128.71900288236793 149.39672753866762,126.75026467745192 133.12395021039993,112.31275944306981 145.7613198379986,94.96878967341036 148.6177116027102,93.0 169.7376991994679,109.50023963395506 186.87604978960007,124.78152347053401 181.07670893333852,119.5315322416136 177.0085146012716,117.84403052704874 166.36196347652003,129.84399479452986 166.01573417242616,131.81272828194778 173.2865495737642,136.59392568224575 172.50753363827243,139.0313920530025 175.88326936075464,142.9688280086266" stroke="#4dd2ff" stroke-linecap="round" stroke-linejoin="round" stroke-width="0.5"><title>2022-02-12 2.2km</title></polyline><polyline fill="none" points="36.93999999994412,191.24272270756774 32.02000000001863,186.10891137714498 26.43999999994412,183.44451667409157 13.0,170.70730069017736 18.459999999729916,162.7139552203007 23.679999999934807,157.32003134518163 67.0,193.12727897166042 64.96000000019558,197.5462229262921 59.38000000012107,202.67996865476016 51.21999999997206,196.89637959527317 50.800000000046566,195.7916448499309 48.39999999990687,197.61120723333443 45.87999999988824,195.85662928433158" stroke="#4dd2ff" stroke-linecap="round" stroke-linejoin="round" stroke-width="0.5"><title>2022-02-10 2.3km</title></polyline><polyline fill="none" points="164.58490566024557,194.50832397514023 163.38623751373962,192.95042463875143 161.10876803519204,193.59954969206592 155.17536071012728,189.8995305749122 133.17980022192933,170.81497824791586 133.0,169.5816088093561 136.17647058796138,165.49200323101832 143.42841287446208,157.57239637168823 187.0,193.4697247191798 184.36293007736094,197.75393887329847 179.32852386240847,202.42760362831177 170.21864594868384,196.19604519254062 168.30077691422775,197.68902669090312 165.54384017712437,195.35218498203903 165.00443951156922,196.19604519254062 166.20310765807517,194.50832397514023" stroke="#4dd2ff" stroke-linecap="round" stroke-linejoin="round" stroke-width="0.5"><title>2022-02-09 2.5km</title></polyline><polyline fill="none" points="28.07675194647163,246.9614720629179 28.917686318047345,243.96883307624375 27.476084538269788,241.56170315970667 16.8442714123521,232.58370210434077 14.081201334483922,231.86806046764832 13.0,229.33078096748795 13.660734148696065,227.4440812963294 20.86874304758385,218.40087943192339 23.751946607371792,216.1237998273573 47.41824249154888,236.48719187855022 67.0,251.90581022860715 66.39933259179816,254.11774215404876 57.32925472734496,263.8762001726427 48.91991101228632,259.5174353905604 47.17797552840784,257.7609122458962 47.538375973468646,255.93932905141264 45.496106785489246,254.57313922554022" stroke="#4dd2ff" stroke-linecap="round" stroke-linejoin="round" stroke-width="0.5"><title>2022-02-08 2.2km</title></polyline></svg>