<?xml version="1.0" encoding="utf-8" ?>
<svg baseProfile="full" height="300mm" version="1.1" viewBox="0,0,200,300" width="200mm" xmlns="http://www.w3.org/2000/svg" xmlns:ev="http://www.w3.org/2001/xml-events" xmlns:xlink="http://www.w3.org/1999/xlink"><defs /><rect fill="#222222" height="300" width="200" x="0" y="0" /><text fill="#FFFFFF" style="font-size:12px; font-family:Arial; font-weight:bold;" x="10" y="20">Over 10km Runs</text><text fill="#FFFFFF" style="font-size:4px; font-family:Arial" x="10" y="280">ATHLETE</text><text fill="#FFFFFF" style="font-size:9px; font-family:Arial" x="10" y="290">leslie</text><text fill="#FFFFFF" style="font-size:4px; font-family:Arial" x="120" y="280">STATISTICS</text><text fill="#FFFFFF" style="font-size:3px; font-family:Arial" x="120" y="285">Number: 4</text><text fill="#FFFFFF" style="font-size:3px; font-family:Arial" x="120" y="290">Weekly: 4.0</text><text fill="#FFFFFF" style="font-size:3px; font-family:Arial" x="141" y="285">Total: 9.2 km</text><text fill="#FFFFFF" style="font-size:3px; font-family:Arial" x="141" y="290">Avg: 2.3 km</text><text fill="#FFFFFF" style="font-size:3px; font-family:Arial" x="167" y="285">Min: 2.2 km</text><text fill="#FFFFFF" style="font-size:3px; font-family:Arial" x="167" y="290">Max: 2.5 km</text><polyline fill="none" points="85.83604746405035,115.5 79.21441200887784,110.57822167233098 75.70884029660374,112.96880127920303 61.68655344983563,103.12521925219335 56.75278585543856,96.65655239333864 46.49574269913137,91.87534995935857 45.067546817008406,88.07850432372652 39.09509130800143,85.1253970162943 14.685925315599889,63.46913916466292 33.64197975676507,37.45318451023195 37.92656740406528,34.5 69.60654879920185,59.25035945104901 95.31407468393445,82.17228520580102 86.61506340000778,74.29729836247861 80.51277190167457,71.76604579074774 64.54294521454722,89.765992191853 64.02360125817358,92.71909242297988 74.92982436064631,99.89088852342684 73.76130045717582,103.54708807962015 78.82490404089913,109.4532420131145" stroke="#4dd2ff" stroke-linecap="round" stroke-linejoin="round" stroke-width="0.5"><title>2022-02-12 2.2km</title></polyline><polyline fill="none" points="140.40999999968335,91.86408406146802 133.0299999997951,84.16336706583388 124.65999999968335,80.16677501122467 104.5,61.060951035353355 112.68999999947846,49.070932830451056 120.51999999955297,40.98004701791797 185.5,94.69091845757794 182.43999999994412,101.31933438952547 174.06999999983236,109.01995298219845 161.82999999960884,100.34456939296797 161.1999999997206,98.68746727495454 157.59999999962747,101.41681085003074 153.8199999993667,98.78494392649736" stroke="#4dd2ff" stroke-linecap="round" stroke-linejoin="round" stroke-width="0.5"><title>2022-02-10 2.3km</title></polyline><polyline fill="none" points="61.87735849013552,246.76248596271034 60.07935627037659,244.42563695821445 56.66315205255523,245.3993245381862 47.7630410650745,239.84929586248472 14.769700333010405,211.2224673719611 14.5,209.3724132141797 19.264705881942064,203.23800484661479 30.14261931180954,191.35859455761965 95.5,245.2045870788861 91.54439511615783,251.63090831006411 83.99278579372913,258.64140544249676 70.32796892337501,249.29406778886914 67.45116537157446,251.5335400364129 63.315760266035795,248.02827747317497 62.50665926700458,249.29406778886914 64.30466148676351,246.76248596271034" stroke="#4dd2ff" stroke-linecap="round" stroke-linejoin="round" stroke-width="0.5"><title>2022-02-09 2.5km</title></polyline><polyline fill="none" points="127.11512791970745,235.44220809452236 128.37652947707102,230.95324961445294 126.21412680763751,227.34255473967642 110.26640711864457,213.87555315659847 106.12180200172588,212.8020907015307 104.5,208.99617145129014 105.4911012230441,206.1661219445523 116.3031145716086,192.6013191479724 120.62791991094127,189.18569974112324 156.12736373767257,219.73078781785443 185.5,242.85871534305625 184.59899888793007,246.17661323118955 170.99388209125027,260.81430025899317 158.3798665185459,254.27615308598615 155.7669632928446,251.64136836887337 156.30756396008655,248.90899357711896 153.24416017811745,246.85970883839764" stroke="#4dd2ff" stroke-linecap="round" stroke-linejoin="round" stroke-width="0.5"><title>2022-02-08 2.2km</title></polyline></svg>