<?xml version="1.0" encoding="utf-8" ?>
<svg baseProfile="full" height="300mm" version="1.1" viewBox="0,0,200,300" width="200mm" xmlns="http://www.w3.org/2000/svg" xmlns:ev="http://www.w3.org/2001/xml-events" xmlns:xlink="http://www.w3.org/1999/xlink"><defs /><rect fill="#222222" height="300" width="200" x="0" y="0" /><text fill="#FFFFFF" style="font-size:12px; font-family:Arial; font-weight:bold;" x="10" y="20">Over 10km Runs</text><text fill="#FFFFFF" style="font-size:4px; font-family:Arial" x="10" y="280">ATHLETE</text><text fill="#FFFFFF" style="font-size:9px; font-family:Arial" x="10" y="290">leslie</text><text fill="#FFFFFF" style="font-size:4px; font-family:Arial" x="120" y="280">STATISTICS</text><text fill="#FFFFFF" style="font-size:3px; font-family:Arial" x="120" y="285">Number: 12</text><text fill="#FFFFFF" style="font-size:3px; font-family:Arial" x="120" y="290">Weekly: 4.0</text><text fill="#FFFFFF" style="font-size:3px; font-family:Arial" x="141" y="285">Total: 25.5 km</text><text fill="#FFFFFF" style="font-size:3px; font-family:Arial" x="141" y="290">Avg: 2.1 km</text><text fill="#FFFFFF" style="font-size:3px; font-family:Arial" x="167" y="285">Min: 1.8 km</text><text fill="#FFFFFF" style="font-size:3px; font-family:Arial" x="167" y="290">Max: 2.5 km</text><polyline fill="none" points="46.521311475662515,77.70600230444688 44.3377049183473,77.51424476166721 42.98032786906697,76.36369862809079 41.32786885276437,76.93897188286064 32.53442622954026,69.14079132897314 23.622950819786638,63.771512103732675 13.118032786762342,54.43911552068312 13.0,53.2885392276803 23.800000000046566,40.63210074167 66.5278688527178,75.85234430857236 67.0,76.93897188286064 64.81639344268478,79.3678992583882" stroke="#4dd2ff" stroke-linecap="round" stroke-linejoin="round" stroke-width="0.5"><title>2022-02-24 2.1km</title></polyline><polyline fill="none" points="105.74342105258256,78.82238192332443 105.44736842089333,77.15501578181284 102.90131578920409,76.4495906974189 101.30263157910667,77.21914530708455 94.31578947347589,72.47354786703363 92.95394736831076,70.29312968347222 86.55921052629128,66.63771065219771 73.0,54.58113362110453 83.77631578943692,41.17761807667557 127.0,77.0267567174742" stroke="#4dd2ff" stroke-linecap="round" stroke-linejoin="round" stroke-width="0.5"><title>2022-02-23 2.0km</title></polyline><polyline fill="none" points="164.63278688536957,73.6151855707285 162.15409836079925,72.78423489176203 161.26885245903395,73.6151855707285 152.82950819679536,66.39228036929853 145.1573770493269,61.79004437522963 133.0,51.179241924081 144.2721311475616,37.81967621308286 187.0,73.55126631562598 179.62295081978664,82.18032378691714 176.0819672131911,79.24006185180042" stroke="#4dd2ff" stroke-linecap="round" stroke-linejoin="round" stroke-width="0.5"><title>2022-02-18 2.2km</title></polyline><polyline fill="none" points="44.01750547043048,138.68520739168162 44.31291028438136,137.1494681450422 42.954048139974475,136.50957600254333 41.24070021882653,137.1494681450422 39.46827133465558,136.18962975702016 33.382932166336104,131.32643252494745 32.555798686807975,129.662700995279 25.93873085337691,125.95128857227974 13.0,114.24104001588421 24.284463894786313,101.31479260826018 48.862144420156255,122.4958215758088 67.0,136.6375544681796 67.0,137.53340320760617" stroke="#4dd2ff" stroke-linecap="round" stroke-linejoin="round" stroke-width="0.5"><title>2022-02-17 2.0km</title></polyline><polyline fill="none" points="104.43107220996171,138.52523466397543 102.6586433260236,136.7975271961186 100.94529540487565,137.2454516797443 95.09628008725122,133.2141231324058 92.14223194727674,129.88666345539968 86.64770240685903,127.07111083890777 73.0,115.2968842505361 73.64989059069194,113.18518567044521 83.92997811804526,101.47476533602457 103.42669584229589,117.40857777011115 104.01750547019765,119.1363232495496 110.75273522967473,123.6796377892606 127.0,137.18146248167614" stroke="#4dd2ff" stroke-linecap="round" stroke-linejoin="round" stroke-width="0.5"><title>2022-02-15 2.0km</title></polyline><polyline fill="none" points="162.1323692991864,132.7840661671944 161.77196885435842,133.9550905667129 160.33036707458086,133.69486305455212 151.68075639614835,126.01811744837323 148.1968854283914,124.71696760645136 146.69521690765396,122.374893129454 135.8832035595551,113.85229266464012 133.0,110.27407746523386 143.57174638472497,97.45744393230416 168.43937708553858,118.99188585439697 187.0,133.49969237088226 185.9788654060103,136.16702136775712 181.4137931035366,141.1113175327191 178.77085650735535,142.54255606769584" stroke="#4dd2ff" stroke-linecap="round" stroke-linejoin="round" stroke-width="0.5"><title>2022-02-14 2.1km</title></polyline><polyline fill="none" points="58.36368528287858,207.0 43.81467858562246,195.08559872186743 36.18532141530886,191.3383051775163 15.071519013028592,173.08210791880265 31.3060813639313,153.0 58.80725256027654,175.86859642027412 56.944269995670766,181.5376411206089 49.31491282489151,192.39523520029616 64.92848098743707,205.17441321455408 64.75105407694355,206.6156661491841" stroke="#4dd2ff" stroke-linecap="round" stroke-linejoin="round" stroke-width="0.5"><title>2022-02-13 1.8km</title></polyline><polyline fill="none" points="114.46266406076029,204.5008787997067 113.06172224320471,205.66118570312392 113.30894726980478,207.0 111.66078042518348,204.85789642494638 101.60696267336607,203.07280726113822 100.37083753943443,197.71752421651036 94.68466192577034,195.93242468393873 94.51984524121508,194.23657772690058 85.20770256966352,187.27465517562814 83.64194406662136,182.90111956151668 86.03178599150851,179.1523623636458 77.54372674226761,170.58373155025765 91.30591989448294,153.0 116.60528095904738,174.51102808793075 116.19323924789205,178.43831207731273 107.86999668227509,188.70274506742135 117.75899775000289,199.50262115697842 121.46737315040082,201.2877155051101 122.45627325726673,202.7157891173847 121.30255646584556,205.66118570312392 122.29145657271147,205.48267702001613 121.96182320360094,204.3223699479131" stroke="#4dd2ff" stroke-linecap="round" stroke-linejoin="round" stroke-width="0.5"><title>2022-02-12 2.0km</title></polyline><polyline fill="none" points="180.55736497603357,207.0 176.14294133940712,203.71881444810424 173.80589353106916,205.31253418605775 164.45770230004564,198.7501461680513 161.16852390393615,194.43770159548149 154.3304951330647,191.25023330620024 153.3783645448275,188.71900288236793 149.39672753866762,186.75026467745192 133.12395021039993,172.3127594430698 145.7613198379986,154.96878967341036 148.6177116027102,153.0 169.7376991994679,169.50023963395506 186.87604978960007,184.781523470534 181.07670893333852,179.5315322416136 177.0085146012716,177.84403052704874 166.36196347652003,189.84399479452986 166.01573417242616,191.81272828194778 173.2865495737642,196.59392568224575 172.50753363827243,199.0313920530025 175.88326936075464,202.9688280086266" stroke="#4dd2ff" stroke-linecap="round" stroke-linejoin="round" stroke-width="0.5"><title>2022-02-12 2.2km</title></polyline><polyline fill="none" points="36.93999999994412,251.24272270756774 32.02000000001863,246.10891137714498 26.43999999994412,243.44451667409157 13.0,230.70730069017736 18.459999999729916,222.7139552203007 23.679999999934807,217.32003134518163 67.0,253.12727897166042 64.96000000019558,257.5462229262921 59.38000000012107,262.67996865476016 51.21999999997206,256.8963795952732 50.800000000046566,255.7916448499309 48.39999999990687,257.6112072333344 45.87999999988824,255.85662928433158" stroke="#4dd2ff" stroke-linecap="round" stroke-linejoin="round" stroke-width="0.5"><title>2022-02-10 2.3km</title></polyline><polyline fill="none" points="104.58490566024557,254.50832397514023 103.38623751373962,252.95042463875143 101.10876803519204,253.59954969206592 95.17536071012728,249.8995305749122 73.17980022192933,230.81497824791586 73.0,229.5816088093561 76.17647058796138,225.49200323101832 83.42841287446208,217.57239637168823 127.0,253.4697247191798 124.36293007736094,257.75393887329847 119.32852386240847,262.4276036283118 110.21864594868384,256.1960451925406 108.30077691422775,257.6890266909031 105.54384017712437,255.35218498203903 105.00443951156922,256.1960451925406 106.20310765807517,254.50832397514023" stroke="#4dd2ff" stroke-linecap="round" stroke-linejoin="round" stroke-width="0.5"><title>2022-02-09 2.5km</title></polyline><polyline fill="none" points="148.07675194647163,246.9614720629179 148.91768631804734,243.96883307624375 147.4760845382698,241.56170315970667 136.8442714123521,232.58370210434077 134.08120133448392,231.86806046764832 133.0,229.33078096748795 133.66073414869606,227.4440812963294 140.86874304758385,218.40087943192339 143.7519466073718,216.1237998273573 167.41824249154888,236.48719187855022 187.0,251.90581022860715 186.39933259179816,254.11774215404876 177.32925472734496,263.8762001726427 168.91991101228632,259.5174353905604 167.17797552840784,257.7609122458962 167.53837597346865,255.93932905141264 165.49610678548925,254.57313922554022" stroke="#4dd2ff" stroke-linecap="round" stroke-linejoin="round" stroke-width="0.5"><title>2022-02-08 2.2km</title></polyline></svg>