<?xml version="1.0" encoding="utf-8" ?>
<svg baseProfile="full" height="300mm" version="1.1" viewBox="0,0,200,300" width="200mm" xmlns="http://www.w3.org/2000/svg" xmlns:ev="http://www.w3.org/2001/xml-events" xmlns:xlink="http://www.w3.org/1999/xlink"><defs /><rect fill="#222222" height="300" width="200" x="0" y="0" /><text fill="#FFFFFF" style="font-size:12px; font-family:Arial; font-weight:bold;" x="10" y="20">Over 10km Runs</text><text fill="#FFFFFF" style="font-size:4px; font-family:Arial" x="10" y="280">ATHLETE</text><text fill="#FFFFFF" style="font-size:9px; font-family:Arial" x="10" y="290">leslie</text><text fill="#FFFFFF" style="font-size:4px; font-family:Arial" x="120" y="280">STATISTICS</text><text fill="#FFFFFF" style="font-size:3px; font-family:Arial" x="120" y="285">Number: 6</text><text fill="#FFFFFF" style="font-size:3px; font-family:Arial" x="120" y="290">Weekly: 6.0</text><text fill="#FFFFFF" style="font-size:3px; font-family:Arial" x="141" y="285">Total: 13.1 km</text><text fill="#FFFFFF" style="font-size:3px; font-family:Arial" x="141" y="290">Avg: 2.2 km</text><text fill="#FFFFFF" style="font-size:3px; font-family:Arial" x="167" y="285">Min: 1.8 km</text><text fill="#FFFFFF" style="font-size:3px; font-family:Arial" x="167" y="290">Max: 2.5 km</text><polyline fill="none" points="74.48491370957345,106.0 55.08623811369762,90.11413162923418 44.91376188630238,85.11774023657199 16.762025350239128,60.776143891736865 38.40810848493129,34.0 75.07633674656972,64.49146189377643 72.59235999314114,72.05018816073425 62.41988376574591,86.52698026702274 83.23797464929521,103.5658842860721 83.00140543514863,105.48755486554" stroke="#4dd2ff" stroke-linecap="round" stroke-linejoin="round" stroke-width="0.5"><title>2022-02-13 1.8km</title></polyline><polyline fill="none" points="169.28355208178982,102.66783839953132 167.41562965791672,104.21491427079309 167.74526302702725,106.0 165.54770723404363,103.14386189985089 152.1426168982871,100.76374301477335 150.49445005320013,93.62336562201381 142.91288256831467,91.2432329118019 142.69312698906288,88.98210363578983 130.27693676017225,79.69954023417085 128.18925875611603,73.86815941520035 131.37571465596557,68.86981648474466 120.05830232333392,57.44497540022712 138.40789319342002,34.0 172.14037461252883,62.681370783713646 171.59098566463217,67.91774943633936 160.49332891078666,81.60366008989513 173.6786636672914,96.00349487585481 178.62316420162097,98.38362067344133 179.94169767713174,100.28771882306319 178.4034086219035,104.21491427079309 179.72194209787995,103.97690269327722 179.2824309389107,102.42982659710106" stroke="#4dd2ff" stroke-linecap="round" stroke-linejoin="round" stroke-width="0.5"><title>2022-02-12 2.0km</title></polyline><polyline fill="none" points="77.40981996804476,186.0 71.52392178587615,181.62508593080565 68.40785804158077,183.75004558137152 55.94360306672752,175.00019489077386 51.5580318714492,169.25026879401412 42.44066017726436,165.00031107489485 41.171152726281434,161.62533717649058 35.86230338504538,159.00035290338565 14.165266947355121,139.75034592405427 31.015093117486686,116.62505289795808 34.82361547043547,114.0 62.98359893262386,136.0003195119789 85.83473305264488,156.37536462733988 78.10227857809514,149.37537632207386 72.67801946820691,147.1253740361426 58.482617968693376,163.12532639270648 58.020978896413,165.75030437589157 67.71539943199605,172.12523424299434 66.67671151738614,175.37518940400332 71.17769248085096,180.62510401161853" stroke="#4dd2ff" stroke-linecap="round" stroke-linejoin="round" stroke-width="0.5"><title>2022-02-12 2.2km</title></polyline><polyline fill="none" points="145.91999999945983,164.99029694346245 139.35999999986961,158.14521516952664 131.91999999945983,154.59268889878877 114.0,137.60973425360862 121.27999999932945,126.95194029377308 128.23999999975786,119.76004179357551 186.0,167.50303862884175 183.2799999997951,173.3949639017228 175.839999999851,180.2399582064245 164.9599999994971,172.5285061270697 164.39999999990687,171.05552646657452 161.1999999997206,173.4816096444847 157.83999999938533,171.14217237906996" stroke="#4dd2ff" stroke-linecap="round" stroke-linejoin="round" stroke-width="0.5"><title>2022-02-10 2.3km</title></polyline><polyline fill="none" points="56.11320754699409,249.34443196689244 54.51498335180804,247.26723285170738 51.47835738025606,248.13273292279337 43.56714761350304,243.19937409996055 14.239733629394323,217.7533043306321 14.0,216.10881174588576 18.235294117592275,210.65600430802442 27.904550499282777,200.0965284955455 86.0,247.959632958984 82.48390677012503,253.6719184977701 75.77136514987797,259.9034715044545 63.62486126506701,251.5947269233875 61.06770255230367,253.58536892116535 57.39178690314293,250.46957997605205 56.67258601542562,251.5947269233875 58.27081021061167,249.34443196689244" stroke="#4dd2ff" stroke-linecap="round" stroke-linejoin="round" stroke-width="0.5"><title>2022-02-09 2.5km</title></polyline><polyline fill="none" points="134.10233592847362,239.28196275047958 135.22358175739646,235.29177743499167 133.30144605087116,232.08227087953128 119.12569521646947,220.11160280567128 115.4416017793119,219.15741395682562 114.0,215.77437462331727 114.8809788650833,213.2587750616949 124.49165739677846,201.20117257582024 128.33592880982906,198.16506643639877 159.89098998904228,225.31625583802816 186.0,245.87441363814287 185.19911012239754,248.82365620532073 173.1056729699485,261.8349335634848 161.89321468304843,256.0232471873751 159.5706340377219,253.68121632782277 160.05116796446964,251.25243873510044 157.32814238080755,249.4308523007203" stroke="#4dd2ff" stroke-linecap="round" stroke-linejoin="round" stroke-width="0.5"><title>2022-02-08 2.2km</title></polyline></svg>